<svg width="22" height="14" viewBox="0 0 22 14" fill="none" xmlns="http://www.w3.org/2000/svg">
<path fill-rule="evenodd" clip-rule="evenodd" d="M21.7761 7C21.7761 6.79375 21.6942 6.59595 21.5483 6.45011C21.4025 6.30427 21.2047 6.22233 20.9984 6.22233H2.65635L7.551 1.32924C7.6233 1.25694 7.68066 1.1711 7.71979 1.07663C7.75892 0.982158 7.77906 0.880905 7.77906 0.778651C7.77906 0.676397 7.75892 0.575145 7.71979 0.480674C7.68066 0.386204 7.6233 0.300366 7.551 0.228061C7.47869 0.155757 7.39286 0.0984022 7.29839 0.0592713C7.20392 0.0201405 7.10266 0 7.00041 0C6.89815 0 6.7969 0.0201405 6.70243 0.0592713C6.60796 0.0984022 6.52212 0.155757 6.44982 0.228061L0.228469 6.44941C0.156048 6.52165 0.0985893 6.60747 0.0593847 6.70195C0.0201802 6.79643 0 6.89771 0 7C0 7.10229 0.0201802 7.20358 0.0593847 7.29806C0.0985893 7.39253 0.156048 7.47835 0.228469 7.55059L6.44982 13.7719C6.52212 13.8442 6.60796 13.9016 6.70243 13.9407C6.7969 13.9799 6.89815 14 7.00041 14C7.10266 14 7.20392 13.9799 7.29839 13.9407C7.39286 13.9016 7.47869 13.8442 7.551 13.7719C7.6233 13.6996 7.68066 13.6138 7.71979 13.5193C7.75892 13.4249 7.77906 13.3236 7.77906 13.2214C7.77906 13.1191 7.75892 13.0178 7.71979 12.9234C7.68066 12.8289 7.6233 12.7431 7.551 12.6708L2.65635 7.77767H20.9984C21.2047 7.77767 21.4025 7.69574 21.5483 7.5499C21.6942 7.40406 21.7761 7.20625 21.7761 7Z" fill="#080C21"/>
</svg>
