<svg width="21" height="18" viewBox="0 0 21 18" fill="none" xmlns="http://www.w3.org/2000/svg">
<path d="M0 2.25C0 1.65326 0.237053 1.08097 0.65901 0.65901C1.08097 0.237053 1.65326 0 2.25 0H18.75C19.3467 0 19.919 0.237053 20.341 0.65901C20.7629 1.08097 21 1.65326 21 2.25V6.75C21 7.34674 20.7629 7.91903 20.341 8.34099C19.919 8.76295 19.3467 9 18.75 9H2.25C1.65326 9 1.08097 8.76295 0.65901 8.34099C0.237053 7.91903 0 7.34674 0 6.75V2.25ZM2.25 1.5C2.05109 1.5 1.86032 1.57902 1.71967 1.71967C1.57902 1.86032 1.5 2.05109 1.5 2.25V6.75C1.5 6.94891 1.57902 7.13968 1.71967 7.28033C1.86032 7.42098 2.05109 7.5 2.25 7.5H18.75C18.9489 7.5 19.1397 7.42098 19.2803 7.28033C19.421 7.13968 19.5 6.94891 19.5 6.75V2.25C19.5 2.05109 19.421 1.86032 19.2803 1.71967C19.1397 1.57902 18.9489 1.5 18.75 1.5H2.25ZM0 14.25C0 13.6533 0.237053 13.081 0.65901 12.659C1.08097 12.2371 1.65326 12 2.25 12H6.75C7.34674 12 7.91903 12.2371 8.34099 12.659C8.76295 13.081 9 13.6533 9 14.25V15.75C9 16.3467 8.76295 16.919 8.34099 17.341C7.91903 17.7629 7.34674 18 6.75 18H2.25C1.65326 18 1.08097 17.7629 0.65901 17.341C0.237053 16.919 0 16.3467 0 15.75V14.25ZM2.25 13.5C2.05109 13.5 1.86032 13.579 1.71967 13.7197C1.57902 13.8603 1.5 14.0511 1.5 14.25V15.75C1.5 15.9489 1.57902 16.1397 1.71967 16.2803C1.86032 16.421 2.05109 16.5 2.25 16.5H6.75C6.94891 16.5 7.13968 16.421 7.28033 16.2803C7.42098 16.1397 7.5 15.9489 7.5 15.75V14.25C7.5 14.0511 7.42098 13.8603 7.28033 13.7197C7.13968 13.579 6.94891 13.5 6.75 13.5H2.25ZM14.25 12C13.6533 12 13.081 12.2371 12.659 12.659C12.2371 13.081 12 13.6533 12 14.25V15.75C12 16.3467 12.2371 16.919 12.659 17.341C13.081 17.7629 13.6533 18 14.25 18H18.75C19.3467 18 19.919 17.7629 20.341 17.341C20.7629 16.919 21 16.3467 21 15.75V14.25C21 13.6533 20.7629 13.081 20.341 12.659C19.919 12.2371 19.3467 12 18.75 12H14.25ZM13.5 14.25C13.5 14.0511 13.579 13.8603 13.7197 13.7197C13.8603 13.579 14.0511 13.5 14.25 13.5H18.75C18.9489 13.5 19.1397 13.579 19.2803 13.7197C19.421 13.8603 19.5 14.0511 19.5 14.25V15.75C19.5 15.9489 19.421 16.1397 19.2803 16.2803C19.1397 16.421 18.9489 16.5 18.75 16.5H14.25C14.0511 16.5 13.8603 16.421 13.7197 16.2803C13.579 16.1397 13.5 15.9489 13.5 15.75V14.25Z" fill="#7B809A"/>
</svg>
