<svg width="17" height="18" viewBox="0 0 17 18" fill="none" xmlns="http://www.w3.org/2000/svg">
<path d="M8.50018 5.54327C8.06341 5.54327 7.63091 5.6293 7.22739 5.79644C6.82387 5.96359 6.45722 6.20858 6.14837 6.51742C5.83953 6.82627 5.59454 7.19292 5.42739 7.59644C5.26025 7.99996 5.17422 8.43246 5.17422 8.86923C5.17422 9.306 5.26025 9.7385 5.42739 10.142C5.59454 10.5455 5.83953 10.9122 6.14837 11.221C6.45722 11.5299 6.82387 11.7749 7.22739 11.942C7.63091 12.1092 8.06341 12.1952 8.50018 12.1952C9.38228 12.1952 10.2282 11.8448 10.852 11.221C11.4757 10.5973 11.8261 9.75133 11.8261 8.86923C11.8261 7.98713 11.4757 7.14116 10.852 6.51742C10.2282 5.89368 9.38228 5.54327 8.50018 5.54327V5.54327ZM6.28287 8.86923C6.28287 8.57805 6.34023 8.28972 6.45166 8.0207C6.56309 7.75169 6.72641 7.50725 6.93231 7.30136C7.1382 7.09546 7.38264 6.93214 7.65165 6.82071C7.92067 6.70928 8.209 6.65192 8.50018 6.65192C8.79136 6.65192 9.07969 6.70928 9.34871 6.82071C9.61772 6.93214 9.86216 7.09546 10.0681 7.30136C10.2739 7.50725 10.4373 7.75169 10.5487 8.0207C10.6601 8.28972 10.7175 8.57805 10.7175 8.86923C10.7175 9.4573 10.4839 10.0213 10.0681 10.4371C9.65223 10.8529 9.08825 11.0865 8.50018 11.0865C7.91211 11.0865 7.34813 10.8529 6.93231 10.4371C6.51648 10.0213 6.28287 9.4573 6.28287 8.86923V8.86923Z" fill="#080C21"/>
<path d="M14.1984 15.074L12.9213 14.513C12.7395 14.434 12.5418 14.3986 12.3439 14.4097C12.146 14.4207 11.9535 14.4779 11.7816 14.5766C11.4364 14.7761 11.2162 15.1287 11.1726 15.5256L11.0188 16.9151C11.0033 17.0547 10.9451 17.1862 10.8521 17.2915C10.7591 17.3968 10.6359 17.4708 10.4992 17.5034C9.18432 17.8169 7.81414 17.8169 6.49922 17.5034C6.36271 17.4707 6.23963 17.3966 6.14678 17.2913C6.05392 17.186 5.99581 17.0546 5.98037 16.9151L5.82664 15.5278C5.80456 15.3326 5.73704 15.1452 5.62948 14.9808C5.52191 14.8164 5.37731 14.6794 5.20727 14.581C5.03741 14.4828 4.84683 14.4258 4.65091 14.4148C4.455 14.4038 4.25923 14.4389 4.0794 14.5174L2.80223 15.0784C2.67312 15.1351 2.52958 15.1503 2.39146 15.1218C2.25335 15.0934 2.1275 15.0227 2.03135 14.9195C1.1121 13.9344 0.428054 12.7538 0.0305992 11.4664C-0.0111927 11.3311 -0.00988412 11.1862 0.0343436 11.0516C0.0785713 10.9171 0.16353 10.7996 0.277459 10.7155L1.40607 9.8818C1.56495 9.76506 1.69414 9.61258 1.78318 9.43668C1.87222 9.26077 1.91861 9.06638 1.91861 8.86923C1.91861 8.67207 1.87222 8.47768 1.78318 8.30178C1.69414 8.12587 1.56495 7.97339 1.40607 7.85666L0.277459 7.02517C0.163384 6.941 0.0783294 6.82341 0.0340951 6.68872C-0.0101392 6.55403 -0.011361 6.40891 0.0305992 6.2735C0.428877 4.98722 1.11342 3.8079 2.03283 2.82411C2.12907 2.72108 2.25495 2.65051 2.39306 2.62218C2.53117 2.59384 2.67468 2.60913 2.80371 2.66594L4.07497 3.22544C4.25585 3.30329 4.45244 3.33772 4.64902 3.32597C4.84559 3.31422 5.03669 3.25661 5.20701 3.15777C5.37733 3.05892 5.52214 2.92158 5.62987 2.75674C5.73759 2.59189 5.80523 2.40411 5.82738 2.20844L5.98259 0.820403C5.99822 0.679199 6.05754 0.546396 6.15228 0.44053C6.24701 0.334663 6.37244 0.261014 6.51105 0.229861C7.1622 0.0849968 7.82665 0.00813012 8.50958 0C9.17625 0.00739102 9.83996 0.0849968 10.4904 0.229861C10.6291 0.260955 10.7547 0.334682 10.8495 0.440714C10.9442 0.546746 11.0035 0.679768 11.0188 0.821143L11.1733 2.20918C11.2066 2.517 11.3523 2.8017 11.5826 3.00873C11.8128 3.21576 12.1113 3.33056 12.4209 3.33113C12.5931 3.33113 12.7639 3.29492 12.9235 3.2247L14.1948 2.6652C14.3238 2.6084 14.4673 2.5931 14.6054 2.62144C14.7435 2.64978 14.8694 2.72034 14.9656 2.82337C15.8848 3.8072 16.5691 4.98653 16.9671 6.27276C17.009 6.408 17.0078 6.55291 16.9637 6.68744C16.9196 6.82197 16.8348 6.93947 16.721 7.02369L15.5939 7.85666C15.2724 8.09317 15.078 8.46937 15.078 8.86923C15.078 9.26834 15.2724 9.64454 15.5946 9.8818L16.7225 10.714C16.956 10.887 17.0551 11.1885 16.9693 11.4657C16.5714 12.7518 15.8873 13.9311 14.9686 14.9151C14.8724 15.0182 14.7466 15.0889 14.6085 15.1174C14.4704 15.1459 14.3268 15.1307 14.1977 15.074H14.1984ZM10.1726 14.9276C10.3489 14.3753 10.7243 13.9083 11.2258 13.6172C11.5484 13.4313 11.9101 13.3237 12.2818 13.3031C12.6536 13.2824 13.025 13.3492 13.3662 13.4982L14.3596 13.9343C14.9976 13.1955 15.4915 12.3436 15.8156 11.4228L14.9368 10.7746V10.7739C14.6376 10.5542 14.3942 10.2674 14.2262 9.9364C14.0581 9.60545 13.9701 9.23966 13.9693 8.86849C13.9693 8.10943 14.3367 7.40506 14.9353 6.96456L14.9368 6.96382L15.8141 6.31563C15.4898 5.39499 14.9957 4.54335 14.3574 3.8049L13.3721 4.23801L13.3707 4.23875C13.0706 4.37179 12.7476 4.43979 12.4202 4.43979C11.8379 4.43891 11.2764 4.22342 10.8431 3.83453C10.4097 3.44563 10.1349 2.91064 10.0713 2.33187V2.33039L9.95083 1.2513C9.47536 1.16275 8.99318 1.11502 8.50958 1.10865C8.01142 1.11531 7.52657 1.16335 7.04985 1.2513L6.92938 2.33113C6.88795 2.69962 6.76064 3.05325 6.55769 3.36359C6.35474 3.67393 6.08181 3.93233 5.76084 4.11801C5.43987 4.30369 5.07981 4.41148 4.7096 4.43271C4.3394 4.45393 3.96938 4.38801 3.62929 4.24023L2.64185 3.80564C2.0035 4.54407 1.50937 5.39571 1.18508 6.31637L2.06461 6.96456C2.36317 7.18443 2.60588 7.47139 2.77314 7.8023C2.94041 8.13322 3.02756 8.49881 3.02756 8.8696C3.02756 9.24038 2.94041 9.60597 2.77314 9.93689C2.60588 10.2678 2.36317 10.5548 2.06461 10.7746L1.18508 11.4236C1.50875 12.3457 2.00265 13.1988 2.64111 13.9387L3.6352 13.5027C3.97421 13.3543 4.34337 13.2876 4.71287 13.3082C5.08237 13.3287 5.44186 13.4359 5.76234 13.6209C6.08268 13.806 6.35514 14.0636 6.55783 14.3731C6.76051 14.6826 6.88777 15.0353 6.92938 15.4029V15.4066L7.04911 16.4886C8.00773 16.6771 8.99295 16.6771 9.95157 16.4886L10.0713 15.4044C10.089 15.2418 10.123 15.0814 10.1733 14.9276H10.1726Z" fill="#080C21"/>
</svg>
