<svg width="18" height="18" viewBox="0 0 18 18" fill="none" xmlns="http://www.w3.org/2000/svg">
<path d="M0 2.25C0 1.65326 0.237053 1.08097 0.65901 0.65901C1.08097 0.237053 1.65326 0 2.25 0L15.75 0C16.3467 0 16.919 0.237053 17.341 0.65901C17.7629 1.08097 18 1.65326 18 2.25V11.25C18 11.8467 17.7629 12.419 17.341 12.841C16.919 13.2629 16.3467 13.5 15.75 13.5H12.9375C12.7628 13.5 12.5906 13.5407 12.4344 13.6188C12.2782 13.6969 12.1423 13.8103 12.0375 13.95L9.9 16.7996C9.79521 16.9393 9.65933 17.0528 9.50311 17.1309C9.3469 17.209 9.17465 17.2496 9 17.2496C8.82535 17.2496 8.6531 17.209 8.49688 17.1309C8.34067 17.0528 8.20479 16.9393 8.1 16.7996L5.9625 13.95C5.85771 13.8103 5.72183 13.6969 5.56562 13.6188C5.4094 13.5407 5.23715 13.5 5.0625 13.5H2.25C1.65326 13.5 1.08097 13.2629 0.65901 12.841C0.237053 12.419 0 11.8467 0 11.25V2.25ZM3.9375 3.375C3.78832 3.375 3.64524 3.43426 3.53975 3.53975C3.43426 3.64524 3.375 3.78832 3.375 3.9375C3.375 4.08668 3.43426 4.22976 3.53975 4.33525C3.64524 4.44074 3.78832 4.5 3.9375 4.5H14.0625C14.2117 4.5 14.3548 4.44074 14.4602 4.33525C14.5657 4.22976 14.625 4.08668 14.625 3.9375C14.625 3.78832 14.5657 3.64524 14.4602 3.53975C14.3548 3.43426 14.2117 3.375 14.0625 3.375H3.9375ZM3.9375 6.1875C3.78832 6.1875 3.64524 6.24676 3.53975 6.35225C3.43426 6.45774 3.375 6.60082 3.375 6.75C3.375 6.89919 3.43426 7.04226 3.53975 7.14775C3.64524 7.25324 3.78832 7.3125 3.9375 7.3125H14.0625C14.2117 7.3125 14.3548 7.25324 14.4602 7.14775C14.5657 7.04226 14.625 6.89919 14.625 6.75C14.625 6.60082 14.5657 6.45774 14.4602 6.35225C14.3548 6.24676 14.2117 6.1875 14.0625 6.1875H3.9375ZM3.9375 9C3.78832 9 3.64524 9.05926 3.53975 9.16475C3.43426 9.27024 3.375 9.41332 3.375 9.5625C3.375 9.71169 3.43426 9.85476 3.53975 9.96025C3.64524 10.0657 3.78832 10.125 3.9375 10.125H9.5625C9.71168 10.125 9.85476 10.0657 9.96025 9.96025C10.0657 9.85476 10.125 9.71169 10.125 9.5625C10.125 9.41332 10.0657 9.27024 9.96025 9.16475C9.85476 9.05926 9.71168 9 9.5625 9H3.9375Z" fill="#080C21"/>
</svg>
