<svg width="65" height="65" viewBox="0 0 65 65" fill="none" xmlns="http://www.w3.org/2000/svg">
<path d="M64.7561 53.2136L52.8905 31.2704C54.101 28.5229 54.7782 25.4865 54.7782 22.292C54.7782 9.98008 44.7971 0 32.4862 0C20.1723 0 10.1923 9.98109 10.1923 22.292C10.1923 25.5636 10.9029 28.6679 12.1682 31.466L0.24969 53.2034C-0.134612 53.902 -0.0707413 54.7637 0.409811 55.4014C0.891377 56.0371 1.70446 56.3362 2.48099 56.1537L12.6588 53.8189L16.1423 63.5212C16.414 64.2755 17.1024 64.7986 17.9002 64.8574C17.952 64.8615 18.0016 64.8635 18.0503 64.8635C18.4169 64.8634 18.7767 64.7638 19.0912 64.5755C19.4058 64.3871 19.6634 64.117 19.8366 63.7939L30.2091 44.4695C30.9653 44.5461 31.725 44.5843 32.4851 44.584C33.1897 44.584 33.8851 44.5475 34.5725 44.4827L45.17 63.8092C45.3575 64.1517 45.6401 64.4328 45.9836 64.6186C46.3271 64.8044 46.717 64.887 47.1064 64.8564C47.9023 64.7925 48.5876 64.2704 48.8572 63.5202L52.3407 53.8179L62.5185 56.1527C63.2991 56.3412 64.1041 56.0381 64.5857 55.4044C65.0693 54.7718 65.1341 53.9141 64.756 53.2136H64.7561ZM18.4192 57.863L15.8683 50.756C15.5195 49.7898 14.5078 49.2272 13.5061 49.4654L5.97843 51.1919L14.5585 35.5426C17.3841 39.3596 21.3988 42.2389 26.0553 43.64L18.4192 57.863ZM14.2655 22.2919C14.2655 12.2459 22.44 4.07247 32.4869 4.07247C42.5329 4.07247 50.7064 12.2459 50.7064 22.2919C50.7064 32.3379 42.5329 40.5133 32.4869 40.5133C22.4389 40.5133 14.2655 32.3379 14.2655 22.2919V22.2919ZM51.4931 49.4653C50.4874 49.2281 49.4796 49.7898 49.1309 50.7559L46.5628 57.9145L38.7594 43.6855C43.5396 42.2854 47.6517 39.3301 50.5137 35.4016L59.0582 51.2L51.4931 49.4653Z" fill="#C6CADE"/>
</svg>
