<svg width="85" height="86" viewBox="0 0 85 86" fill="none" xmlns="http://www.w3.org/2000/svg">
<path d="M42.4851 70.3789C43.5286 70.379 44.5358 70.7621 45.3157 71.4556C46.0955 72.149 46.5937 73.1045 46.7158 74.1409L46.7456 74.6394V80.8426C46.7433 81.9282 46.3268 82.9719 45.581 83.7607C44.8352 84.5495 43.8164 85.0239 42.7327 85.087C41.649 85.1501 40.582 84.7971 39.7498 84.1001C38.9175 83.4032 38.3827 82.4148 38.2545 81.3368L38.2246 80.8426V74.6394C38.2246 73.5094 38.6735 72.4258 39.4725 71.6268C40.2715 70.8278 41.3552 70.3789 42.4851 70.3789V70.3789ZM68.2014 62.1476L72.5897 66.5359C73.3652 67.34 73.7939 68.4165 73.7834 69.5336C73.7729 70.6507 73.3241 71.719 72.5336 72.5084C71.7431 73.2977 70.6742 73.7451 69.5571 73.754C68.44 73.7629 67.3641 73.3327 66.5611 72.556L62.1771 68.172C61.401 67.3684 60.9715 66.2922 60.9813 65.1751C60.991 64.058 61.439 62.9895 62.229 62.1995C63.0189 61.4096 64.0875 60.9615 65.2046 60.9518C66.3216 60.9421 67.3978 61.3716 68.2014 62.1476V62.1476ZM22.7847 62.1476C23.5834 62.9466 24.0321 64.0301 24.0321 65.1598C24.0321 66.2895 23.5834 67.373 22.7847 68.172L18.4049 72.5603C17.6054 73.3597 16.5212 73.8088 15.3906 73.8088C14.26 73.8088 13.1757 73.3597 12.3763 72.5603C11.5769 71.7608 11.1277 70.6765 11.1277 69.546C11.1277 68.4154 11.5769 67.3311 12.3763 66.5317L16.7646 62.1434C17.5635 61.3447 18.647 60.896 19.7768 60.896C20.9065 60.896 21.99 61.3447 22.7889 62.1434L22.7847 62.1476ZM42.5405 18.9975C48.7835 18.9975 54.7708 21.4775 59.1852 25.8919C63.5997 30.3064 66.0797 36.2937 66.0797 42.5366C66.0797 48.7796 63.5997 54.7669 59.1852 59.1813C54.7708 63.5958 48.7835 66.0758 42.5405 66.0758C36.2975 66.0758 30.3103 63.5958 25.8958 59.1813C21.4814 54.7669 19.0013 48.7796 19.0013 42.5366C19.0013 36.2937 21.4814 30.3064 25.8958 25.8919C30.3103 21.4775 36.2975 18.9975 42.5405 18.9975V18.9975ZM39.3025 29.768C38.5304 29.768 37.7843 30.0477 37.2024 30.5552C36.6205 31.0627 36.242 31.7638 36.137 32.5288L36.1072 32.9633V45.7618L36.137 46.1964C36.2321 46.8879 36.5509 47.5292 37.0449 48.0223C37.5388 48.5155 38.1806 48.8334 38.8722 48.9274L39.3025 48.9572H47.8235L48.2581 48.9274C48.9489 48.8325 49.5898 48.5143 50.0828 48.0212C50.5759 47.5281 50.8942 46.8872 50.989 46.1964L51.0189 45.7618L50.989 45.3273C50.8942 44.6364 50.5759 43.9956 50.0828 43.5025C49.5898 43.0094 48.9489 42.6912 48.2581 42.5963L47.8235 42.5665H42.4979V32.9633L42.4723 32.5288C42.3672 31.7631 41.9881 31.0614 41.4053 30.5538C40.8225 30.0462 40.0754 29.767 39.3025 29.768ZM80.7442 38.3656C81.8301 38.3668 82.8746 38.7827 83.6642 39.5281C84.4539 40.2736 84.929 41.2924 84.9927 42.3764C85.0563 43.4605 84.7036 44.5279 84.0066 45.3606C83.3097 46.1934 82.321 46.7285 81.2427 46.8568L80.7442 46.8866H74.5452C73.4593 46.8854 72.4149 46.4696 71.6252 45.7241C70.8356 44.9787 70.3604 43.9598 70.2968 42.8758C70.2332 41.7918 70.5859 40.7243 71.2828 39.8916C71.9798 39.0589 72.9685 38.5237 74.0468 38.3955L74.5452 38.3656H80.7485H80.7442ZM10.4591 38.2463C11.545 38.2475 12.5895 38.6633 13.3791 39.4088C14.1687 40.1543 14.6439 41.1731 14.7075 42.2571C14.7712 43.3412 14.4185 44.4086 13.7215 45.2413C13.0245 46.0741 12.0359 46.6092 10.9576 46.7375L10.4591 46.7673H4.25156C3.16601 46.765 2.12227 46.3485 1.33346 45.6027C0.544654 44.8569 0.0702802 43.8381 0.00720377 42.7544C-0.0558727 41.6707 0.297106 40.6037 0.994064 39.7715C1.69102 38.9392 2.67939 38.4044 3.75734 38.2762L4.25156 38.2463H10.4591ZM18.0001 12.1892L18.4049 12.5429L22.7889 16.9312C23.553 17.6979 23.9966 18.7267 24.0297 19.8086C24.0627 20.8906 23.6827 21.9445 22.9668 22.7564C22.2509 23.5683 21.2528 24.0773 20.1752 24.1799C19.0976 24.2826 18.0214 23.9712 17.1651 23.3091L16.7646 22.9512L12.3763 18.5672C11.6122 17.8005 11.1686 16.7717 11.1355 15.6897C11.1025 14.6078 11.4825 13.5538 12.1984 12.7419C12.9143 11.93 13.9124 11.421 14.99 11.3184C16.0676 11.2157 17.1438 11.5271 18.0001 12.1892V12.1892ZM72.5897 12.5429C73.3232 13.2765 73.7639 14.2526 73.829 15.288C73.8941 16.3234 73.5792 17.347 72.9433 18.1667L72.5897 18.5672L68.2014 22.9555C67.4347 23.7196 66.4059 24.1632 65.3239 24.1962C64.242 24.2293 63.188 23.8493 62.3761 23.1334C61.5642 22.4175 61.0552 21.4194 60.9526 20.3418C60.8499 19.2642 61.1613 18.188 61.8234 17.3316L62.1771 16.9269L66.5654 12.5386C67.3643 11.7399 68.4478 11.2912 69.5775 11.2912C70.7072 11.2912 71.7907 11.7399 72.5897 12.5386V12.5429ZM42.4979 0C43.5414 0.000137659 44.5486 0.383257 45.3284 1.07669C46.1083 1.77012 46.6065 2.72564 46.7286 3.762L46.7584 4.26048V10.4595C46.767 11.552 46.3556 12.6061 45.6092 13.4039C44.8627 14.2018 43.8383 14.6823 42.7476 14.7463C41.6569 14.8103 40.5833 14.4529 39.7487 13.7478C38.914 13.0428 38.3822 12.044 38.263 10.958L38.2374 10.4595V4.26048C38.2374 3.13053 38.6863 2.04686 39.4853 1.24787C40.2843 0.448871 41.3679 0 42.4979 0V0Z" fill="black"/>
</svg>
