<svg width="18" height="18" viewBox="0 0 18 18" fill="none" xmlns="http://www.w3.org/2000/svg">
<path d="M5.99998 8.07003H5.56498C4.97136 8.04857 4.37966 8.14935 3.82661 8.3661C3.27356 8.58284 2.77095 8.91094 2.34998 9.33003L2.22998 9.47003V13.61H4.26998V11.26L4.54498 10.95L4.66998 10.805C5.32094 10.1363 6.13137 9.64417 7.02498 9.37503C6.57758 9.03459 6.22472 8.58535 5.99998 8.07003V8.07003Z" fill="#080C21"/>
<path d="M15.6699 9.31501C15.2489 8.89593 14.7463 8.56783 14.1933 8.35108C13.6402 8.13433 13.0485 8.03356 12.4549 8.05501C12.2728 8.05553 12.0909 8.06554 11.9099 8.08501C11.681 8.56847 11.3377 8.98891 10.9099 9.31001C11.8639 9.57394 12.7281 10.0925 13.4099 10.81L13.5349 10.95L13.8049 11.26V13.615H15.7749V9.45501L15.6699 9.31501Z" fill="#080C21"/>
<path d="M5.54994 7.09502H5.70494C5.63292 6.47665 5.74142 5.85064 6.01735 5.29257C6.29328 4.7345 6.72484 4.26822 7.25994 3.95002C7.06597 3.6537 6.79837 3.41283 6.48334 3.251C6.16831 3.08917 5.81665 3.01193 5.4628 3.02684C5.10895 3.04175 4.76504 3.1483 4.46475 3.33606C4.16445 3.52382 3.91806 3.78636 3.74971 4.09795C3.58136 4.40954 3.49682 4.75952 3.50437 5.1136C3.51192 5.46768 3.61129 5.81374 3.79276 6.11788C3.97424 6.42201 4.23159 6.67381 4.53961 6.8486C4.84763 7.0234 5.19577 7.1152 5.54994 7.11502V7.09502Z" fill="#080C21"/>
<path d="M12.2151 6.72003C12.2212 6.83495 12.2212 6.95011 12.2151 7.06503C12.3111 7.08024 12.408 7.08859 12.5051 7.09003H12.6001C12.9527 7.07123 13.2944 6.96144 13.592 6.77137C13.8896 6.58129 14.1329 6.3174 14.2982 6.00539C14.4636 5.69337 14.5453 5.34387 14.5354 4.99089C14.5256 4.63792 14.4245 4.29352 14.242 3.99121C14.0596 3.68889 13.8019 3.43898 13.4942 3.26579C13.1865 3.09261 12.8392 3.00205 12.4861 3.00294C12.133 3.00382 11.7861 3.09613 11.4793 3.27086C11.1724 3.44559 10.916 3.6968 10.7351 4.00003C11.1876 4.2955 11.5598 4.69868 11.8181 5.17341C12.0764 5.64815 12.2128 6.17958 12.2151 6.72003V6.72003Z" fill="#080C21"/>
<path d="M8.93495 8.95999C10.1693 8.95999 11.17 7.95935 11.17 6.72499C11.17 5.49063 10.1693 4.48999 8.93495 4.48999C7.7006 4.48999 6.69995 5.49063 6.69995 6.72499C6.69995 7.95935 7.7006 8.95999 8.93495 8.95999Z" fill="#080C21"/>
<path d="M9.055 10.15C8.40202 10.1236 7.75046 10.2296 7.13952 10.4616C6.52858 10.6936 5.97089 11.0468 5.5 11.5L5.375 11.64V14.805C5.37695 14.9081 5.39919 15.0098 5.44046 15.1043C5.48172 15.1988 5.5412 15.2842 5.61549 15.3557C5.68978 15.4272 5.77743 15.4834 5.87343 15.521C5.96943 15.5586 6.07191 15.577 6.175 15.575H11.92C12.0231 15.577 12.1256 15.5586 12.2216 15.521C12.3176 15.4834 12.4052 15.4272 12.4795 15.3557C12.5538 15.2842 12.6133 15.1988 12.6545 15.1043C12.6958 15.0098 12.718 14.9081 12.72 14.805V11.65L12.6 11.5C12.1322 11.0454 11.5764 10.6913 10.9668 10.4591C10.3572 10.227 9.70668 10.1218 9.055 10.15V10.15Z" fill="#080C21"/>
</svg>
