<svg width="21" height="21" viewBox="0 0 21 21" fill="none" xmlns="http://www.w3.org/2000/svg">
<path d="M0 2.25C0 1.65326 0.237053 1.08097 0.65901 0.65901C1.08097 0.237053 1.65326 0 2.25 0H6.75C7.34674 0 7.91903 0.237053 8.34099 0.65901C8.76295 1.08097 9 1.65326 9 2.25V6.75C9 7.34674 8.76295 7.91903 8.34099 8.34099C7.91903 8.76295 7.34674 9 6.75 9H2.25C1.65326 9 1.08097 8.76295 0.65901 8.34099C0.237053 7.91903 0 7.34674 0 6.75V2.25ZM12 2.25C12 1.65326 12.2371 1.08097 12.659 0.65901C13.081 0.237053 13.6533 0 14.25 0H18.75C19.3467 0 19.919 0.237053 20.341 0.65901C20.7629 1.08097 21 1.65326 21 2.25V6.75C21 7.34674 20.7629 7.91903 20.341 8.34099C19.919 8.76295 19.3467 9 18.75 9H14.25C13.6533 9 13.081 8.76295 12.659 8.34099C12.2371 7.91903 12 7.34674 12 6.75V2.25ZM0 14.25C0 13.6533 0.237053 13.081 0.65901 12.659C1.08097 12.2371 1.65326 12 2.25 12H6.75C7.34674 12 7.91903 12.2371 8.34099 12.659C8.76295 13.081 9 13.6533 9 14.25V18.75C9 19.3467 8.76295 19.919 8.34099 20.341C7.91903 20.7629 7.34674 21 6.75 21H2.25C1.65326 21 1.08097 20.7629 0.65901 20.341C0.237053 19.919 0 19.3467 0 18.75V14.25ZM12 14.25C12 13.6533 12.2371 13.081 12.659 12.659C13.081 12.2371 13.6533 12 14.25 12H18.75C19.3467 12 19.919 12.2371 20.341 12.659C20.7629 13.081 21 13.6533 21 14.25V18.75C21 19.3467 20.7629 19.919 20.341 20.341C19.919 20.7629 19.3467 21 18.75 21H14.25C13.6533 21 13.081 20.7629 12.659 20.341C12.2371 19.919 12 19.3467 12 18.75V14.25Z" fill="#080C21"/>
</svg>
