<svg width="22" height="30" viewBox="0 0 22 30" fill="none" xmlns="http://www.w3.org/2000/svg">
<path d="M10.6988 0L13.8281 1.62L17.3119 2.14875L18.8906 5.29875L21.3975 7.77375L20.8237 11.25L21.3975 14.7263L18.8906 17.2012L17.3119 20.3513L13.8281 20.88L10.6988 22.5L7.56937 20.88L4.08563 20.3513L2.50688 17.2012L0 14.7263L0.57375 11.25L0 7.77375L2.50688 5.29875L4.08563 2.14875L7.56937 1.62L10.6988 0Z" fill="#F3B30C"/>
<path d="M3.19873 22.1137V30L10.6987 28.125L18.1987 30V22.1137L14.415 22.6875L10.6987 24.6113L6.98248 22.6875L3.19873 22.1137Z" fill="#357BA8"/>
</svg>
