<svg width="22" height="14" viewBox="0 0 22 14" fill="none" xmlns="http://www.w3.org/2000/svg">
<path fill-rule="evenodd" clip-rule="evenodd" d="M21.776 6.99997C21.776 6.79372 21.6941 6.59592 21.5482 6.45008C21.4024 6.30424 21.2046 6.2223 20.9984 6.2223H2.65634L7.55096 1.32923C7.62327 1.25693 7.68062 1.17109 7.71975 1.07662C7.75888 0.982154 7.77903 0.880901 7.77903 0.778648C7.77903 0.676394 7.75888 0.575142 7.71975 0.480672C7.68062 0.386202 7.62327 0.300365 7.55096 0.22806C7.47866 0.155756 7.39282 0.0984018 7.29835 0.0592711C7.20388 0.0201404 7.10263 0 7.00038 0C6.89812 0 6.79687 0.0201404 6.7024 0.0592711C6.60793 0.0984018 6.52209 0.155756 6.44979 0.22806L0.228468 6.44938C0.156047 6.52162 0.0985888 6.60744 0.0593845 6.70192C0.0201801 6.7964 0 6.89768 0 6.99997C0 7.10226 0.0201801 7.20354 0.0593845 7.29802C0.0985888 7.3925 0.156047 7.47832 0.228468 7.55056L6.44979 13.7719C6.52209 13.8442 6.60793 13.9015 6.7024 13.9407C6.79687 13.9798 6.89812 13.9999 7.00038 13.9999C7.10263 13.9999 7.20388 13.9798 7.29835 13.9407C7.39282 13.9015 7.47866 13.8442 7.55096 13.7719C7.62327 13.6996 7.68062 13.6137 7.71975 13.5193C7.75888 13.4248 7.77903 13.3235 7.77903 13.2213C7.77903 13.119 7.75888 13.0178 7.71975 12.9233C7.68062 12.8288 7.62327 12.743 7.55096 12.6707L2.65634 7.77763H20.9984C21.2046 7.77763 21.4024 7.6957 21.5482 7.54986C21.6941 7.40402 21.776 7.20622 21.776 6.99997Z" fill="#080C21"/>
</svg>
