<svg width="102" height="20" viewBox="0 0 102 20" fill="none" xmlns="http://www.w3.org/2000/svg">
<path d="M57.8333 3.33332H55.3333V1.66666H53.6667V3.33332H50.3333V1.66666H48.6667V3.33332H46.1667C45.2475 3.33332 44.5 4.08082 44.5 4.99999V16.6667C44.5 17.5858 45.2475 18.3333 46.1667 18.3333H57.8333C58.7525 18.3333 59.5 17.5858 59.5 16.6667V4.99999C59.5 4.08082 58.7525 3.33332 57.8333 3.33332ZM46.1667 16.6667V5.83332H57.8333V4.99999L57.835 16.6667H46.1667Z" fill="#080C21"/>
<path d="M47.8333 8.33333V10H56.1666V7.5H47.8333V8.33333Z" fill="#080C21"/>
<path d="M84 4.25C84 3.65326 84.2371 3.08097 84.659 2.65901C85.081 2.23705 85.6533 2 86.25 2H99.75C100.347 2 100.919 2.23705 101.341 2.65901C101.763 3.08097 102 3.65326 102 4.25V13.25C102 13.8467 101.763 14.419 101.341 14.841C100.919 15.2629 100.347 15.5 99.75 15.5H96.9375C96.7628 15.5 96.5906 15.5407 96.4344 15.6188C96.2782 15.6969 96.1423 15.8103 96.0375 15.95L93.9 18.7996C93.7952 18.9393 93.6593 19.0528 93.5031 19.1309C93.3469 19.209 93.1747 19.2496 93 19.2496C92.8253 19.2496 92.6531 19.209 92.4969 19.1309C92.3407 19.0528 92.2048 18.9393 92.1 18.7996L89.9625 15.95C89.8577 15.8103 89.7218 15.6969 89.5656 15.6188C89.4094 15.5407 89.2372 15.5 89.0625 15.5H86.25C85.6533 15.5 85.081 15.2629 84.659 14.841C84.2371 14.419 84 13.8467 84 13.25V4.25ZM87.9375 5.375C87.7883 5.375 87.6452 5.43426 87.5398 5.53975C87.4343 5.64524 87.375 5.78832 87.375 5.9375C87.375 6.08668 87.4343 6.22976 87.5398 6.33525C87.6452 6.44074 87.7883 6.5 87.9375 6.5H98.0625C98.2117 6.5 98.3548 6.44074 98.4602 6.33525C98.5657 6.22976 98.625 6.08668 98.625 5.9375C98.625 5.78832 98.5657 5.64524 98.4602 5.53975C98.3548 5.43426 98.2117 5.375 98.0625 5.375H87.9375ZM87.9375 8.1875C87.7883 8.1875 87.6452 8.24676 87.5398 8.35225C87.4343 8.45774 87.375 8.60082 87.375 8.75C87.375 8.89919 87.4343 9.04226 87.5398 9.14775C87.6452 9.25324 87.7883 9.3125 87.9375 9.3125H98.0625C98.2117 9.3125 98.3548 9.25324 98.4602 9.14775C98.5657 9.04226 98.625 8.89919 98.625 8.75C98.625 8.60082 98.5657 8.45774 98.4602 8.35225C98.3548 8.24676 98.2117 8.1875 98.0625 8.1875H87.9375ZM87.9375 11C87.7883 11 87.6452 11.0593 87.5398 11.1648C87.4343 11.2702 87.375 11.4133 87.375 11.5625C87.375 11.7117 87.4343 11.8548 87.5398 11.9602C87.6452 12.0657 87.7883 12.125 87.9375 12.125H93.5625C93.7117 12.125 93.8548 12.0657 93.9602 11.9602C94.0657 11.8548 94.125 11.7117 94.125 11.5625C94.125 11.4133 94.0657 11.2702 93.9602 11.1648C93.8548 11.0593 93.7117 11 93.5625 11H87.9375Z" fill="#080C21"/>
<path d="M10 1.25C7.68802 1.27789 5.47859 2.20872 3.84366 3.84366C2.20872 5.47859 1.27789 7.68802 1.25 10C1.27789 12.312 2.20872 14.5214 3.84366 16.1563C5.47859 17.7913 7.68802 18.7221 10 18.75C12.312 18.7221 14.5214 17.7913 16.1563 16.1563C17.7913 14.5214 18.7221 12.312 18.75 10C18.7221 7.68802 17.7913 5.47859 16.1563 3.84366C14.5214 2.20872 12.312 1.27789 10 1.25V1.25ZM15 10.625H10.625V15H9.375V10.625H5V9.375H9.375V5H10.625V9.375H15V10.625Z" fill="#080C21"/>
</svg>
