<svg width="14" height="14" viewBox="0 0 14 14" fill="none" xmlns="http://www.w3.org/2000/svg">
<path fill-rule="evenodd" clip-rule="evenodd" d="M0 7C0 3.13401 3.13401 0 7 0C10.866 0 14 3.13401 14 7C14 10.866 10.866 14 7 14C3.13401 14 0 10.866 0 7ZM10.295 5.74497C10.5683 5.47161 10.5683 5.02839 10.295 4.75503C10.0216 4.48166 9.57839 4.48166 9.30503 4.75503L6.3 7.76005L4.69497 6.15503C4.42161 5.88166 3.97839 5.88166 3.70503 6.15503C3.43166 6.42839 3.43166 6.87161 3.70503 7.14497L5.80503 9.24497C5.8392 9.27915 5.87602 9.30905 5.91484 9.33467C6.18654 9.51407 6.55578 9.48417 6.79497 9.24497L10.295 5.74497Z" fill="#080C21"/>
</svg>
