<svg width="50" height="48" viewBox="0 0 50 48" fill="none" xmlns="http://www.w3.org/2000/svg">
<path d="M31.885 17.5C34.3 17.5 36.26 19.46 36.26 21.875V30H36.25V32.5H13.75V25H13.755V21.875C13.755 19.46 15.7125 17.5 18.13 17.5H31.885V17.5ZM50 21.875C50 20.7147 49.5391 19.6019 48.7186 18.7814C47.8981 17.9609 46.7853 17.5 45.625 17.5H37.1875C38.17 18.6875 38.76 20.2125 38.76 21.875V25H38.75V32.5H48.125C48.6223 32.5 49.0992 32.3025 49.4508 31.9508C49.8025 31.5992 50 31.1223 50 30.625V21.875ZM11.25 30H11.255V21.875L11.2775 21.325C11.39 19.875 11.9525 18.555 12.8275 17.5H4.375L4.015 17.515C2.92075 17.6053 1.90047 18.1038 1.1567 18.9115C0.412927 19.7192 4.10115e-05 20.777 0 21.875V30.625C0 31.66 0.84 32.5 1.875 32.5H11.25V30ZM25 0C26.9891 0 28.8968 0.790177 30.3033 2.1967C31.7098 3.60322 32.5 5.51088 32.5 7.5C32.5 9.48912 31.7098 11.3968 30.3033 12.8033C28.8968 14.2098 26.9891 15 25 15C23.0109 15 21.1032 14.2098 19.6967 12.8033C18.2902 11.3968 17.5 9.48912 17.5 7.5C17.5 5.51088 18.2902 3.60322 19.6967 2.1967C21.1032 0.790177 23.0109 0 25 0V0ZM41.25 2.5C42.9076 2.5 44.4973 3.15848 45.6694 4.33058C46.8415 5.50269 47.5 7.0924 47.5 8.75C47.5 10.4076 46.8415 11.9973 45.6694 13.1694C44.4973 14.3415 42.9076 15 41.25 15C39.5924 15 38.0027 14.3415 36.8306 13.1694C35.6585 11.9973 35 10.4076 35 8.75C35 7.0924 35.6585 5.50269 36.8306 4.33058C38.0027 3.15848 39.5924 2.5 41.25 2.5ZM8.75 2.5C10.4076 2.5 11.9973 3.15848 13.1694 4.33058C14.3415 5.50269 15 7.0924 15 8.75C15 10.4076 14.3415 11.9973 13.1694 13.1694C11.9973 14.3415 10.4076 15 8.75 15C7.0924 15 5.50269 14.3415 4.33058 13.1694C3.15848 11.9973 2.5 10.4076 2.5 8.75C2.5 7.0924 3.15848 5.50269 4.33058 4.33058C5.50269 3.15848 7.0924 2.5 8.75 2.5V2.5ZM0 36.875C0 36.3777 0.197544 35.9008 0.549175 35.5492C0.900805 35.1975 1.37772 35 1.875 35H48.125C48.6223 35 49.0992 35.1975 49.4508 35.5492C49.8025 35.9008 50 36.3777 50 36.875V38.125C50 40.6114 49.0123 42.996 47.2541 44.7541C45.496 46.5123 43.1114 47.5 40.625 47.5H9.375C6.8886 47.5 4.50403 46.5123 2.74587 44.7541C0.98772 42.996 0 40.6114 0 38.125V36.875Z" fill="black"/>
</svg>
