<svg width="50" height="50" viewBox="0 0 50 50" fill="none" xmlns="http://www.w3.org/2000/svg">
<path d="M41.748 37.5H37.5L25 50V37.5H8.25195C6.39648 37.5 4.55729 36.5723 2.73438 34.7168C0.911458 32.8613 0 30.9896 0 29.1016V8.39844C0 6.51042 0.911458 4.63867 2.73438 2.7832C4.55729 0.927734 6.39648 0 8.25195 0H41.748C43.6035 0 45.4427 0.927734 47.2656 2.7832C49.0885 4.63867 50 6.51042 50 8.39844V29.1016C50 30.9896 49.0885 32.8613 47.2656 34.7168C45.4427 36.5723 43.6035 37.5 41.748 37.5ZM37.5 9.375H12.5C11.6211 9.375 10.8805 9.68424 10.2783 10.3027C9.67611 10.9212 9.375 11.6618 9.375 12.5244C9.375 13.387 9.67611 14.1195 10.2783 14.7217C10.8805 15.3239 11.6211 15.625 12.5 15.625H37.5C38.3464 15.625 39.0788 15.3239 39.6973 14.7217C40.3158 14.1195 40.625 13.387 40.625 12.5244C40.625 11.6618 40.3158 10.9212 39.6973 10.3027C39.0788 9.68424 38.3464 9.375 37.5 9.375ZM37.5 21.875H12.5C11.6211 21.875 10.8805 22.1842 10.2783 22.8027C9.67611 23.4212 9.375 24.1618 9.375 25.0244C9.375 25.887 9.67611 26.6195 10.2783 27.2217C10.8805 27.8239 11.6211 28.125 12.5 28.125H37.5C38.3464 28.125 39.0788 27.8239 39.6973 27.2217C40.3158 26.6195 40.625 25.887 40.625 25.0244C40.625 24.1618 40.3158 23.4212 39.6973 22.8027C39.0788 22.1842 38.3464 21.875 37.5 21.875Z" fill="black"/>
</svg>
