<svg width="16" height="18" viewBox="0 0 16 18" fill="none" xmlns="http://www.w3.org/2000/svg">
<path d="M11.2432 3.2623C12.3134 3.69512 13.2297 4.4379 13.8746 5.39527C14.5196 6.35265 14.8636 7.48093 14.8627 8.63527C14.8636 9.78955 14.5195 10.9178 13.8746 11.8751C13.2297 12.8324 12.3133 13.5751 11.2432 14.0078V15.2165C12.6283 14.7603 13.8339 13.8785 14.688 12.6967C15.5422 11.5148 16.0014 10.0935 16 8.63527C16 5.56543 14.0069 2.95959 11.2432 2.05019V3.2623V3.2623ZM11.2432 6.11592C11.6074 6.4269 11.8997 6.8133 12.0998 7.24838C12.2999 7.68346 12.403 8.15681 12.4022 8.6357C12.4031 9.11453 12.2999 9.58784 12.0998 10.0229C11.8997 10.4579 11.6074 10.8442 11.2432 11.155V12.3849C12.5362 11.6363 13.4054 10.2374 13.4054 8.6357C13.4057 7.876 13.2061 7.12959 12.8265 6.47148C12.447 5.81337 11.9009 5.26674 11.2432 4.88651V6.11592V6.11592ZM1.2973 12.0986H4.75676L8.64865 16.8619C9.08108 17.4846 10.093 17.4374 10.3784 16.7313V0.57473C10.0277 -0.131 9.10746 -0.187648 8.64865 0.40954L4.75676 5.18921H1.2973C0.189838 5.18921 0 5.38857 0 6.47094V10.8005C0 11.8565 0.216216 12.0986 1.2973 12.0986Z" fill="#F7F7F7"/>
</svg>
