<svg width="16" height="18" viewBox="0 0 16 18" fill="none" xmlns="http://www.w3.org/2000/svg">
<path d="M11.2432 3.26229C12.3133 3.69511 13.2297 4.43789 13.8746 5.39526C14.5195 6.35263 14.8636 7.48091 14.8627 8.63525C14.8636 9.78953 14.5195 10.9177 13.8746 11.875C13.2296 12.8323 12.3133 13.575 11.2432 14.0078V15.2164C12.6282 14.7603 13.8338 13.8784 14.688 12.6966C15.5422 11.5148 16.0014 10.0934 16 8.63525C16 5.56542 14.0069 2.95959 11.2432 2.05018V3.26229V3.26229ZM11.2432 6.1159C11.6074 6.42689 11.8996 6.81329 12.0997 7.24837C12.2998 7.68344 12.403 8.1568 12.4021 8.63568C12.4031 9.11451 12.2999 9.58782 12.0998 10.0228C11.8997 10.4578 11.6074 10.8442 11.2432 11.155V12.3849C12.5362 11.6363 13.4054 10.2374 13.4054 8.63568C13.4057 7.87598 13.206 7.12958 12.8265 6.47147C12.447 5.81336 11.9009 5.26673 11.2432 4.8865V6.1159V6.1159ZM1.29729 12.0986H4.75675L8.64863 16.8618C9.08106 17.4845 10.093 17.4374 10.3784 16.7312V0.574728C10.0277 -0.131 9.10744 -0.187648 8.64863 0.40954L4.75675 5.1892H1.29729C0.189837 5.1892 0 5.38855 0 6.47093V10.8004C0 11.8564 0.216216 12.0986 1.29729 12.0986Z" fill="#F7F7F7"/>
</svg>
