<svg width="14" height="14" viewBox="0 0 14 14" fill="none" xmlns="http://www.w3.org/2000/svg">
<path d="M12.5753 4.56464C12.5914 4.44285 12.5998 4.32105 12.5998 4.19995C12.5998 2.53467 11.0998 1.19839 9.43519 1.42448C8.95009 0.561393 8.0261 0 6.99991 0C5.97373 0 5.04974 0.561393 4.56464 1.42448C2.89656 1.19839 1.39998 2.53467 1.39998 4.19995C1.39998 4.32105 1.40838 4.44285 1.42448 4.56464C0.561393 5.05044 0 5.97443 0 6.99991C0 8.0254 0.561393 8.94939 1.42448 9.43519C1.40833 9.55608 1.40015 9.67791 1.39998 9.79988C1.39998 11.4652 2.89656 12.7979 4.56464 12.5753C5.04974 13.4384 5.97373 13.9998 6.99991 13.9998C8.0261 13.9998 8.95009 13.4384 9.43519 12.5753C11.0998 12.7979 12.5998 11.4652 12.5998 9.79988C12.5998 9.67878 12.5914 9.55698 12.5753 9.43519C13.4384 8.94939 13.9998 8.0254 13.9998 6.99991C13.9998 5.97443 13.4384 5.05044 12.5753 4.56464ZM6.26842 10.0911L3.70156 7.49131L4.69834 6.50852L6.27822 8.1087L9.30709 5.10294L10.2927 6.09693L6.26842 10.0911V10.0911Z" fill="#4BD37B"/>
</svg>
