<svg width="21" height="18" viewBox="0 0 21 18" fill="none" xmlns="http://www.w3.org/2000/svg">
<path d="M1.01256 1.01256C1.34075 0.684375 1.78587 0.5 2.25 0.5H18.75C19.2141 0.5 19.6592 0.684375 19.9874 1.01256C20.3156 1.34075 20.5 1.78587 20.5 2.25V6.75C20.5 7.21413 20.3156 7.65925 19.9874 7.98744C19.6592 8.31563 19.2141 8.5 18.75 8.5H2.25C1.78587 8.5 1.34075 8.31563 1.01256 7.98744C0.684375 7.65925 0.5 7.21413 0.5 6.75V2.25C0.5 1.78587 0.684375 1.34075 1.01256 1.01256ZM1.01256 13.0126C1.34075 12.6844 1.78587 12.5 2.25 12.5H6.75C7.21413 12.5 7.65925 12.6844 7.98744 13.0126C8.31563 13.3408 8.5 13.7859 8.5 14.25V15.75C8.5 16.2141 8.31563 16.6592 7.98744 16.9874C7.65925 17.3156 7.21413 17.5 6.75 17.5H2.25C1.78587 17.5 1.34075 17.3156 1.01256 16.9874C0.684375 16.6592 0.5 16.2141 0.5 15.75V14.25C0.5 13.7859 0.684375 13.3408 1.01256 13.0126ZM13.0126 13.0126C13.3408 12.6844 13.7859 12.5 14.25 12.5H18.75C19.2141 12.5 19.6592 12.6844 19.9874 13.0126C20.3156 13.3408 20.5 13.7859 20.5 14.25V15.75C20.5 16.2141 20.3156 16.6592 19.9874 16.9874C19.6592 17.3156 19.2141 17.5 18.75 17.5H14.25C13.7859 17.5 13.3408 17.3156 13.0126 16.9874C12.6844 16.6592 12.5 16.2141 12.5 15.75V14.25C12.5 13.7859 12.6844 13.3408 13.0126 13.0126Z" stroke="#7B809A"/>
</svg>
