<svg width="20" height="17" viewBox="0 0 20 17" fill="none" xmlns="http://www.w3.org/2000/svg">
<path d="M18.8522 0.00183726L0.859912 1.12935C0.67874 1.14071 0.50683 1.20484 0.364146 1.3143C0.221462 1.42377 0.113857 1.57407 0.0538271 1.74775C-0.00620283 1.92143 -0.0161948 2.11137 0.0250113 2.29551C0.0662173 2.47965 0.156931 2.65044 0.286618 2.78804L3.71396 6.4222L11.553 5.26364L6.63012 11.4731L8.06373 16.2584C8.11741 16.44 8.21966 16.6046 8.35853 16.7329C8.4974 16.8612 8.66713 16.9478 8.84789 16.9827C9.02864 17.0177 9.21294 16.9994 9.37922 16.9301C9.5455 16.8607 9.68689 16.7432 9.78685 16.5913L19.7595 1.5732C19.8603 1.42151 19.9156 1.24142 19.919 1.05397C19.9223 0.866526 19.8736 0.679469 19.7784 0.514666C19.6833 0.349863 19.5457 0.214123 19.3816 0.123311C19.2176 0.0324983 19.034 -0.00963458 18.8522 0.00183726Z" fill="#F7C331"/>
</svg>
