<svg width="60" height="60" viewBox="0 0 60 60" fill="none" xmlns="http://www.w3.org/2000/svg">
<path d="M25.3125 30.4687C25.3125 32.2809 23.8434 33.75 22.0312 33.75C20.2191 33.75 18.75 32.2809 18.75 30.4687C18.75 25.2994 22.9556 21.0937 28.125 21.0937C33.2944 21.0937 37.5 25.2994 37.5 30.4687C37.5 32.2809 36.0309 33.75 34.2188 33.75C32.4066 33.75 30.9375 32.2809 30.9375 30.4687C30.9375 28.9179 29.6757 27.6562 28.125 27.6562C26.5743 27.6562 25.3125 28.9179 25.3125 30.4687ZM28.125 9.84374C16.7523 9.84374 7.5 19.096 7.5 30.4687C7.5 32.2809 8.96906 33.75 10.7812 33.75C12.5934 33.75 14.0625 32.2809 14.0625 30.4687C14.0625 22.7147 20.3709 16.4062 28.125 16.4062C35.8791 16.4062 42.1875 22.7147 42.1875 30.4687C42.1875 39.277 33.8661 38.7083 33.7504 47.2994L33.75 47.3437C33.75 50.7038 31.0164 53.4375 27.6562 53.4375C25.8441 53.4375 24.375 54.9065 24.375 56.7187C24.375 58.5309 25.8441 60 27.6562 60C34.626 60 40.298 54.3365 40.3125 47.3702C40.3822 43.3357 48.75 41.7171 48.75 30.4687C48.75 19.096 39.4977 9.84374 28.125 9.84374ZM18.75 37.5C16.6789 37.5 15 39.1789 15 41.25C15 43.321 16.6789 45 18.75 45C20.8211 45 22.5 43.321 22.5 41.25C22.5 39.1789 20.8211 37.5 18.75 37.5ZM3.75 52.5C1.67895 52.5 0 54.1789 0 56.25C0 58.321 1.67895 60 3.75 60C5.82105 60 7.5 58.321 7.5 56.25C7.5 54.1789 5.82105 52.5 3.75 52.5ZM60 30.4695C60 30.2917 59.9986 30.1151 59.9947 29.9386C59.7745 16.4678 51.1121 4.50819 38.4368 0.177057C36.722 -0.408646 34.8568 0.506237 34.2708 2.22104C33.6848 3.93585 34.6001 5.801 36.3148 6.38706C46.3819 9.82698 53.2613 19.3378 53.4332 30.0534L53.4335 30.0755C53.4366 30.2065 53.4374 30.3375 53.4374 30.4695C53.4374 32.2817 54.9064 33.7508 56.7186 33.7508C58.5308 33.7508 60 32.2817 60 30.4695ZM17.9263 51.4487L8.55129 42.0737L4.57383 46.0511L13.9488 55.4261L17.9263 51.4487Z" fill="#080C21"/>
</svg>
