<svg width="16" height="18" viewBox="0 0 16 18" fill="none" xmlns="http://www.w3.org/2000/svg">
<path d="M11.2433 3.2623C12.3134 3.69513 13.2297 4.4379 13.8747 5.39528C14.5196 6.35266 14.8637 7.48094 14.8627 8.63528C14.8636 9.78956 14.5195 10.9178 13.8746 11.8751C13.2297 12.8324 12.3134 13.5751 11.2433 14.0078V15.2165C12.6283 14.7604 13.8339 13.8785 14.6881 12.6967C15.5423 11.5149 16.0014 10.0935 16 8.63528C16 5.56544 14.0069 2.9596 11.2433 2.05019V3.2623V3.2623ZM11.2433 6.11593C11.6074 6.42692 11.8997 6.81332 12.0998 7.24839C12.2999 7.68347 12.4031 8.15683 12.4022 8.63572C12.4031 9.11455 12.3 9.58786 12.0999 10.0229C11.8997 10.4579 11.6075 10.8442 11.2433 11.1551V12.3849C12.5362 11.6364 13.4054 10.2374 13.4054 8.63572C13.4057 7.87601 13.2061 7.1296 12.8266 6.47149C12.447 5.81339 11.901 5.26675 11.2433 4.88652V6.11593V6.11593ZM1.2973 12.0986H4.75676L8.64866 16.8619C9.0811 17.4846 10.093 17.4375 10.3784 16.7313V0.574731C10.0277 -0.131 9.10747 -0.187649 8.64866 0.409541L4.75676 5.18922H1.2973C0.189838 5.18922 0 5.38858 0 6.47096V10.8005C0 11.8565 0.216217 12.0986 1.2973 12.0986Z" fill="#F7F7F7"/>
</svg>
