<svg width="16" height="18" viewBox="0 0 16 18" fill="none" xmlns="http://www.w3.org/2000/svg">
<path d="M11.2434 3.26234C12.3135 3.69517 13.2299 4.43796 13.8748 5.39534C14.5198 6.35273 14.8638 7.48103 14.8629 8.63538C14.8638 9.78968 14.5197 10.9179 13.8748 11.8752C13.2298 12.8325 12.3135 13.5752 11.2434 14.008V15.2167C12.6284 14.7605 13.834 13.8786 14.6882 12.6968C15.5424 11.515 16.0016 10.0936 16.0002 8.63538C16.0002 5.5655 14.0071 2.95963 11.2434 2.05022V3.26234V3.26234ZM11.2434 6.116C11.6076 6.42699 11.8998 6.8134 12.0999 7.24848C12.3 7.68356 12.4032 8.15692 12.4023 8.63582C12.4033 9.11465 12.3001 9.58797 12.1 10.023C11.8999 10.458 11.6076 10.8443 11.2434 11.1552V12.3851C12.5364 11.6365 13.4056 10.2376 13.4056 8.63582C13.4059 7.8761 13.2062 7.12969 12.8267 6.47157C12.4472 5.81345 11.9011 5.26681 11.2434 4.88658V6.116V6.116ZM1.29731 12.0988H4.75682L8.64876 16.8621C9.0812 17.4848 10.0931 17.4377 10.3785 16.7315V0.574737C10.0278 -0.131002 9.10758 -0.187651 8.64876 0.409546L4.75682 5.18928H1.29731C0.18984 5.18928 0 5.38864 0 6.47103V10.8006C0 11.8566 0.216219 12.0988 1.29731 12.0988Z" fill="#F7F7F7"/>
</svg>
