<svg width="24" height="24" viewBox="0 0 24 24" fill="none" xmlns="http://www.w3.org/2000/svg">
<path d="M13.8332 6.66667C15.3059 6.66667 16.4998 5.47276 16.4998 4C16.4998 2.52724 15.3059 1.33334 13.8332 1.33334C12.3604 1.33334 11.1665 2.52724 11.1665 4C11.1665 5.47276 12.3604 6.66667 13.8332 6.66667Z" fill="#080C21"/>
<path d="M16.5598 17.4867C16.4861 17.4371 16.4033 17.4028 16.3162 17.3857C16.2291 17.3685 16.1394 17.369 16.0525 17.387C15.9655 17.405 15.883 17.4402 15.8099 17.4905C15.7367 17.5408 15.6744 17.6053 15.6265 17.68C14.982 18.6344 14.1925 19.4824 13.2865 20.1933C13.0665 20.36 12.2465 20.9933 11.8998 20.86C11.6598 20.7867 11.7998 20.3133 11.8465 20.1133L12.1998 19.0667C12.3465 18.64 14.8998 11.0667 15.1798 10.2C15.5931 8.93333 15.4131 7.68667 13.5265 7.98667C13.0131 8.04 7.80645 8.71333 7.71312 8.72C7.62557 8.72569 7.54 8.74857 7.4613 8.78733C7.38259 8.82609 7.31229 8.87997 7.25441 8.9459C7.19652 9.01183 7.1522 9.08852 7.12395 9.17158C7.0957 9.25464 7.0841 9.34245 7.08979 9.43C7.09548 9.51755 7.11836 9.60312 7.15712 9.68182C7.19588 9.76053 7.24976 9.83083 7.31569 9.88871C7.38162 9.94659 7.4583 9.99092 7.54136 10.0192C7.62443 10.0474 7.71224 10.059 7.79979 10.0533C7.79979 10.0533 9.79979 9.79333 10.0198 9.77333C10.1325 9.76233 10.2459 9.78417 10.3465 9.83622C10.447 9.88827 10.5304 9.96831 10.5865 10.0667C10.7072 10.4401 10.6907 10.8444 10.5398 11.2067C10.3665 11.8733 7.62645 19.5933 7.53979 20.04C7.44683 20.4138 7.47264 20.8072 7.61362 21.1657C7.75461 21.5241 8.00376 21.8297 8.32645 22.04C8.93213 22.4437 9.65329 22.638 10.3798 22.5933C11.0862 22.5847 11.7848 22.4445 12.4398 22.18C14.0998 21.5133 15.8331 19.74 16.7465 18.3467C16.8251 18.2051 16.8495 18.0398 16.8152 17.8815C16.7808 17.7232 16.69 17.5829 16.5598 17.4867V17.4867Z" fill="#080C21"/>
</svg>
