<svg width="14" height="13" viewBox="0 0 14 13" fill="none" xmlns="http://www.w3.org/2000/svg">
<path d="M13 2.16667H12.2778V1.44445C12.2778 1.2529 12.2017 1.0692 12.0662 0.933758C11.9308 0.798315 11.7471 0.722223 11.5556 0.722223C11.364 0.722223 11.1803 0.798315 11.0449 0.933758C10.9094 1.0692 10.8333 1.2529 10.8333 1.44445V2.16667H10.1111C9.91957 2.16667 9.73587 2.24276 9.60042 2.3782C9.46498 2.51364 9.38889 2.69734 9.38889 2.88889C9.38889 3.08044 9.46498 3.26414 9.60042 3.39958C9.73587 3.53502 9.91957 3.61111 10.1111 3.61111H10.8333V4.33333C10.8333 4.52488 10.9094 4.70858 11.0449 4.84402C11.1803 4.97947 11.364 5.05556 11.5556 5.05556C11.7471 5.05556 11.9308 4.97947 12.0662 4.84402C12.2017 4.70858 12.2778 4.52488 12.2778 4.33333V3.61111H13C13.1915 3.61111 13.3752 3.53502 13.5107 3.39958C13.6461 3.26414 13.7222 3.08044 13.7222 2.88889C13.7222 2.69734 13.6461 2.51364 13.5107 2.3782C13.3752 2.24276 13.1915 2.16667 13 2.16667ZM5.05556 5.77778C5.62692 5.77778 6.18546 5.60835 6.66054 5.29091C7.13561 4.97348 7.50589 4.5223 7.72454 3.99442C7.94319 3.46654 8.0004 2.88569 7.88894 2.3253C7.77747 1.76491 7.50233 1.25016 7.09831 0.846137C6.69429 0.442119 6.17954 0.166979 5.61915 0.0555105C5.05876 -0.0559579 4.4779 0.0012517 3.95003 0.219905C3.42215 0.438558 2.97097 0.808834 2.65353 1.28391C2.3361 1.75898 2.16667 2.31752 2.16667 2.88889C2.16667 3.65507 2.47103 4.38987 3.0128 4.93164C3.55457 5.47341 4.28937 5.77778 5.05556 5.77778ZM9.38889 13C9.58043 13 9.76414 12.9239 9.89958 12.7885C10.035 12.653 10.1111 12.4693 10.1111 12.2778C10.1111 10.937 9.57847 9.65106 8.63037 8.70296C7.68227 7.75486 6.39637 7.22222 5.05556 7.22222C3.71474 7.22222 2.42884 7.75486 1.48074 8.70296C0.532637 9.65106 1.99797e-08 10.937 0 12.2778C0 12.4693 0.076091 12.653 0.211534 12.7885C0.346977 12.9239 0.530677 13 0.722222 13" fill="#080C21"/>
</svg>
