<svg width="25" height="25" viewBox="0 0 25 25" fill="none" xmlns="http://www.w3.org/2000/svg">
<circle cx="12.5" cy="12.5" r="11.5" stroke="url(#paint0_linear_317_3112)" stroke-width="2"/>
<circle cx="12.5" cy="12.5" r="9.5" fill="#F7F7F7"/>
<g clip-path="url(#clip0_317_3112)">
<path d="M13.9986 8.0947C13.9625 8.0947 13.9083 8.0947 13.8722 8.11276V7.15582C13.8722 6.75859 13.5472 6.43359 13.15 6.43359C12.843 6.43359 12.5903 6.61415 12.4819 6.86693C12.3736 6.61415 12.1208 6.43359 11.8139 6.43359C11.4167 6.43359 11.0917 6.75859 11.0917 7.15582V8.11276C11.0555 8.11276 11.0014 8.0947 10.9653 8.0947C10.568 8.0947 10.243 8.4197 10.243 8.81693V14.5405C10.243 14.9378 10.568 15.2628 10.9653 15.2628C11.1639 15.2628 11.3625 15.1725 11.4889 15.0461C11.5792 15.1003 11.7055 15.1364 11.8139 15.1364V15.1725H13.6375C13.7458 15.2266 13.8542 15.2628 13.9986 15.2628C14.3958 15.2628 14.7208 14.9378 14.7208 14.5405V8.81693C14.7208 8.4197 14.4139 8.0947 13.9986 8.0947V8.0947Z" fill="#EDC0A2"/>
<path d="M18.043 14.0348C17.9889 13.9445 17.9347 13.8723 17.8625 13.8001C17.2305 13.1681 15.9125 13.4931 14.9014 14.5042C13.8903 15.5153 13.5653 16.8514 14.1972 17.4653C14.2514 17.5195 14.2875 17.5556 14.3417 17.5917L15.75 19.0001H18.9639L19 14.9917L18.043 14.0348Z" fill="#357BA8"/>
<path d="M17.0319 13.6735C16.9958 13.6013 16.9417 13.5291 16.8694 13.4749C15.6417 12.3916 14.2514 10.8027 14.2514 10.243V7.39019C14.2514 6.99297 13.9264 6.66797 13.5292 6.66797C13.1319 6.66797 12.8069 6.99297 12.8069 7.39019V13.2582C12.8069 15.5152 14.125 16.8152 14.1792 16.8694C14.2875 16.9596 14.4319 17.0319 14.5764 17.068H14.7208C15.0458 17.068 15.7139 16.9416 16.5264 16.1291C17.4653 15.2082 17.2847 14.161 17.0319 13.6735Z" fill="#FFD3B6"/>
<path d="M10.0805 14.5042C9.06943 13.4931 7.73332 13.1681 7.11943 13.8001C7.04721 13.8723 6.99304 13.9445 6.93888 14.0348L5.98193 14.9917L5.99999 19.0001H9.21388L10.6222 17.5917C10.6764 17.5556 10.7305 17.5195 10.7667 17.4653C11.4167 16.8334 11.0917 15.5153 10.0805 14.5042Z" fill="#357BA8"/>
<path d="M11.4528 6.66797C11.0555 6.66797 10.7305 6.99297 10.7305 7.39019V10.243C10.7305 10.8027 9.35832 12.3916 8.11248 13.4749C8.04026 13.5291 7.9861 13.6013 7.94998 13.6735C7.69721 14.161 7.51665 15.2082 8.43748 16.1471C9.24998 16.9596 9.91804 17.086 10.243 17.086H10.3875C10.5319 17.068 10.6764 16.9957 10.7847 16.8874C10.8389 16.8332 12.1569 15.5513 12.1569 13.2763V7.39019C12.175 6.99297 11.85 6.66797 11.4528 6.66797V6.66797Z" fill="#FFD3B6"/>
<path d="M15.8402 8.49155C15.8583 8.49155 15.8583 8.49155 15.8764 8.4735L17.1583 7.75128C17.1764 7.73322 17.1944 7.71516 17.1944 7.69711C17.1944 7.67905 17.1944 7.661 17.1764 7.64294L16.6166 7.08322C16.5986 7.08322 16.5805 7.06516 16.5444 7.08322C16.5264 7.08322 16.5083 7.10128 16.4902 7.11933L15.768 8.40128C15.75 8.43739 15.75 8.45544 15.7861 8.49155H15.8402Z" fill="#00BEEA"/>
<path d="M7.89586 7.76912L9.17781 8.49134C9.19586 8.49134 9.19586 8.5094 9.21392 8.5094C9.26809 8.5094 9.28614 8.47329 9.28614 8.43717C9.28614 8.41912 9.28614 8.40106 9.26809 8.38301L8.56392 7.11912C8.54586 7.08301 8.52781 7.08301 8.50975 7.08301C8.4917 7.08301 8.47364 7.08301 8.45559 7.10106L7.89586 7.66079C7.87781 7.67884 7.87781 7.6969 7.87781 7.71495C7.87781 7.73301 7.87781 7.75106 7.89586 7.76912V7.76912Z" fill="#00BEEA"/>
<path d="M17.2125 9.37645C17.1945 9.3584 17.1764 9.3584 17.1584 9.3584L15.75 9.75562C15.7139 9.75562 15.6959 9.79173 15.6959 9.82784C15.6959 9.86395 15.7139 9.88201 15.75 9.90006L17.1584 10.2973H17.1764C17.1945 10.2973 17.2125 10.2973 17.2125 10.2792C17.2306 10.2612 17.2486 10.2431 17.2486 10.2251V9.43062C17.2306 9.41256 17.2306 9.37645 17.2125 9.37645Z" fill="#00BEEA"/>
<path d="M9.32221 9.75562L7.91388 9.3584C7.89582 9.3584 7.87776 9.3584 7.85971 9.37645C7.8236 9.37645 7.80554 9.41256 7.80554 9.43062V10.207C7.80554 10.2251 7.8236 10.2431 7.84165 10.2612C7.85971 10.2792 7.87776 10.2792 7.87776 10.2792H7.89582L9.30415 9.88201C9.34027 9.88201 9.35832 9.8459 9.35832 9.80979C9.35832 9.77368 9.34027 9.75562 9.32221 9.75562V9.75562Z" fill="#00BEEA"/>
</g>
<defs>
<linearGradient id="paint0_linear_317_3112" x1="12.5" y1="0" x2="12.5" y2="25" gradientUnits="userSpaceOnUse">
<stop offset="0.333333" stop-color="#242B4D"/>
<stop offset="1" stop-color="#F7F7F7"/>
</linearGradient>
<clipPath id="clip0_317_3112">
<rect width="13" height="13" fill="white" transform="translate(6 6)"/>
</clipPath>
</defs>
</svg>
