<svg width="56" height="68" viewBox="0 0 56 68" fill="none" xmlns="http://www.w3.org/2000/svg">
<path d="M43.7113 0.0158691L47.5791 7.29989L55.8513 8.30508L49.7813 13.7754L50.9953 21.8679L43.7113 17.3154L36.4273 21.8679L37.6413 13.7754L31.5713 8.30508L40.0693 7.29989L43.7113 0.0158691Z" fill="#C6CADE"/>
<path d="M43.0246 27.3285L38.3191 26.1193C37.4756 29.3686 35.6881 32.2949 33.1822 34.5287C30.6764 36.7625 27.5647 38.2034 24.2402 38.6695C20.9158 39.1356 17.5278 38.606 14.5043 37.1474C11.4807 35.6889 8.95733 33.3669 7.25283 30.4749C5.54833 27.5829 4.73923 24.2506 4.92774 20.8989C5.11625 17.5473 6.29392 14.3267 8.31196 11.6441C10.33 8.96143 13.0979 6.93709 16.2659 5.82679C19.4339 4.7165 22.8599 4.57007 26.1111 5.40601L27.3227 0.702964C22.5832 -0.529852 17.5668 -0.133045 13.08 1.82959C8.59328 3.79222 4.89687 7.20664 2.58511 11.5239C0.273353 15.8411 -0.519439 20.8103 0.3342 25.6326C1.18784 30.4548 3.63831 34.8499 7.29163 38.1112V68L21.8597 58.288L36.4277 68V38.155C39.6524 35.2808 41.9489 31.512 43.0246 27.3285V27.3285ZM31.5717 58.9265L21.8597 52.4511L12.1476 58.9265V41.4133C15.1609 42.9271 18.4858 43.7166 21.8579 43.7191C25.23 43.7217 28.5562 42.9371 31.5717 41.4279V58.9265Z" fill="#C6CADE"/>
</svg>
