<svg width="17" height="18" viewBox="0 0 17 18" fill="none" xmlns="http://www.w3.org/2000/svg">
<path d="M8.50009 5.54336C8.06331 5.54336 7.63081 5.62939 7.22728 5.79654C6.82375 5.96369 6.4571 6.20868 6.14825 6.51753C5.8394 6.82637 5.59441 7.19303 5.42726 7.59656C5.26012 8.00009 5.17409 8.43258 5.17409 8.86936C5.17409 9.30614 5.26012 9.73864 5.42726 10.1422C5.59441 10.5457 5.8394 10.9123 6.14825 11.2212C6.4571 11.53 6.82375 11.775 7.22728 11.9422C7.63081 12.1093 8.06331 12.1954 8.50009 12.1954C9.38219 12.1954 10.2282 11.8449 10.8519 11.2212C11.4757 10.5974 11.8261 9.75147 11.8261 8.86936C11.8261 7.98725 11.4757 7.14127 10.8519 6.51753C10.2282 5.89378 9.38219 5.54336 8.50009 5.54336V5.54336ZM6.28275 8.86936C6.28275 8.57818 6.34011 8.28984 6.45154 8.02082C6.56297 7.75181 6.7263 7.50737 6.9322 7.30147C7.13809 7.09557 7.38253 6.93225 7.65155 6.82081C7.92057 6.70938 8.2089 6.65203 8.50009 6.65203C8.79127 6.65203 9.0796 6.70938 9.34862 6.82081C9.61764 6.93225 9.86208 7.09557 10.068 7.30147C10.2739 7.50737 10.4372 7.75181 10.5486 8.02082C10.6601 8.28984 10.7174 8.57818 10.7174 8.86936C10.7174 9.45743 10.4838 10.0214 10.068 10.4373C9.65215 10.8531 9.08816 11.0867 8.50009 11.0867C7.91201 11.0867 7.34803 10.8531 6.9322 10.4373C6.51636 10.0214 6.28275 9.45743 6.28275 8.86936V8.86936Z" fill="#080C21"/>
<path d="M14.1986 15.0742L12.9214 14.5132C12.7396 14.4342 12.5419 14.3988 12.344 14.4098C12.1461 14.4209 11.9536 14.478 11.7817 14.5767C11.4366 14.7763 11.2163 15.1289 11.1727 15.5258L11.019 16.9153C11.0035 17.0549 10.9452 17.1864 10.8522 17.2917C10.7592 17.397 10.636 17.471 10.4994 17.5036C9.18443 17.8171 7.81423 17.8171 6.49929 17.5036C6.36278 17.4708 6.2397 17.3968 6.14685 17.2915C6.05399 17.1862 5.99588 17.0548 5.98044 16.9153L5.8267 15.528C5.80463 15.3327 5.7371 15.1454 5.62954 14.981C5.52198 14.8165 5.37737 14.6796 5.20733 14.5812C5.03746 14.4829 4.84688 14.426 4.65096 14.415C4.45505 14.4039 4.25928 14.4391 4.07945 14.5176L2.80226 15.0786C2.67315 15.1353 2.5296 15.1505 2.39149 15.122C2.25337 15.0935 2.12753 15.0228 2.03137 14.9197C1.11211 13.9346 0.428059 12.754 0.0305995 11.4666C-0.0111928 11.3312 -0.00988423 11.1863 0.034344 11.0517C0.0785722 10.9172 0.163532 10.7997 0.277462 10.7156L1.40608 9.88191C1.56497 9.76517 1.69416 9.61269 1.7832 9.43678C1.87224 9.26087 1.91864 9.06648 1.91864 8.86932C1.91864 8.67217 1.87224 8.47777 1.7832 8.30187C1.69416 8.12596 1.56497 7.97348 1.40608 7.85674L0.277462 7.02524C0.163385 6.94107 0.0783303 6.82349 0.0340955 6.6888C-0.0101393 6.5541 -0.0113611 6.40899 0.0305995 6.27357C0.428882 4.98727 1.11344 3.80794 2.03285 2.82414C2.12909 2.72111 2.25498 2.65054 2.39309 2.62221C2.5312 2.59387 2.67471 2.60916 2.80374 2.66597L4.07501 3.22548C4.2559 3.30333 4.45249 3.33776 4.64907 3.326C4.84565 3.31425 5.03674 3.25665 5.20706 3.1578C5.37739 3.05896 5.52221 2.92162 5.62993 2.75677C5.73766 2.59192 5.8053 2.40414 5.82744 2.20846L5.98266 0.820412C5.99828 0.679207 6.05761 0.546403 6.15235 0.440534C6.24708 0.334666 6.37251 0.261017 6.51112 0.229863C7.16228 0.0849978 7.82674 0.00813021 8.50967 0C9.17635 0.0073911 9.84007 0.0849978 10.4905 0.229863C10.6293 0.260958 10.7548 0.334686 10.8496 0.440719C10.9444 0.546752 11.0036 0.679775 11.019 0.821152L11.1734 2.2092C11.2067 2.51702 11.3525 2.80173 11.5827 3.00877C11.8129 3.2158 12.1114 3.3306 12.421 3.33117C12.5933 3.33117 12.764 3.29495 12.9236 3.22474L14.1949 2.66523C14.3239 2.60842 14.4675 2.59313 14.6056 2.62147C14.7437 2.64981 14.8696 2.72037 14.9658 2.8234C15.885 3.80724 16.5693 4.98658 16.9673 6.27283C17.0092 6.40807 17.008 6.55298 16.9639 6.68751C16.9198 6.82204 16.835 6.93955 16.7212 7.02377L15.594 7.85674C15.2725 8.09326 15.0781 8.46947 15.0781 8.86932C15.0781 9.26844 15.2725 9.64465 15.5948 9.88191L16.7227 10.7141C16.9562 10.8871 17.0553 11.1887 16.9695 11.4658C16.5715 12.7519 15.8875 13.9312 14.9688 14.9152C14.8726 15.0184 14.7468 15.0891 14.6086 15.1176C14.4705 15.1461 14.327 15.1309 14.1979 15.0742H14.1986ZM10.1727 14.9278C10.349 14.3755 10.7244 13.9084 11.2259 13.6174C11.5485 13.4315 11.9102 13.3239 12.282 13.3032C12.6537 13.2826 13.0251 13.3494 13.3664 13.4984L14.3597 13.9344C14.9978 13.1957 15.4917 12.3438 15.8158 11.423L14.937 10.7748V10.774C14.6378 10.5543 14.3944 10.2675 14.2263 9.93652C14.0583 9.60556 13.9703 9.23976 13.9695 8.86859C13.9695 8.10952 14.3368 7.40515 14.9355 6.96464L14.937 6.9639L15.8143 6.3157C15.49 5.39505 14.9958 4.5434 14.3575 3.80494L13.3723 4.23806L13.3708 4.2388C13.0707 4.37184 12.7477 4.43984 12.4203 4.43984C11.838 4.43896 11.2765 4.22347 10.8432 3.83457C10.4098 3.44567 10.1351 2.91067 10.0714 2.33189V2.33041L9.95094 1.25131C9.47546 1.16276 8.99328 1.11504 8.50967 1.10867C8.01151 1.11532 7.52666 1.16336 7.04993 1.25131L6.92946 2.33115C6.88803 2.69965 6.76072 3.05328 6.55776 3.36363C6.35481 3.67397 6.08188 3.93237 5.7609 4.11806C5.43993 4.30374 5.07986 4.41153 4.70966 4.43276C4.33945 4.45398 3.96942 4.38806 3.62933 4.24028L2.64188 3.80568C2.00352 4.54412 1.50938 5.39577 1.18509 6.31644L2.06463 6.96464C2.3632 7.18451 2.60591 7.47148 2.77318 7.80239C2.94045 8.13331 3.0276 8.4989 3.0276 8.86969C3.0276 9.24048 2.94045 9.60608 2.77318 9.937C2.60591 10.2679 2.3632 10.5549 2.06463 10.7748L1.18509 11.4237C1.50877 12.3458 2.00267 13.199 2.64114 13.9389L3.63524 13.5028C3.97426 13.3544 4.34342 13.2878 4.71292 13.3083C5.08242 13.3289 5.44192 13.436 5.7624 13.6211C6.08274 13.8061 6.35521 14.0638 6.5579 14.3732C6.76059 14.6827 6.88785 15.0355 6.92946 15.4031V15.4068L7.04919 16.4888C8.00782 16.6773 8.99305 16.6773 9.95168 16.4888L10.0714 15.4045C10.0892 15.2419 10.1232 15.0815 10.1734 14.9278H10.1727Z" fill="#080C21"/>
</svg>
