<svg width="18" height="4" viewBox="0 0 18 4" fill="none" xmlns="http://www.w3.org/2000/svg">
<path d="M15.7289 4C15.4662 4.00008 15.2061 3.94844 14.9634 3.848C14.7208 3.74757 14.5002 3.60032 14.3145 3.41467C14.1287 3.22901 13.9813 3.00858 13.8807 2.76596C13.7801 2.52334 13.7283 2.26329 13.7282 2.00064C13.7281 1.738 13.7798 1.47791 13.8802 1.23523C13.9806 0.992543 14.1279 0.772017 14.3135 0.58624C14.4992 0.400464 14.7196 0.253075 14.9623 0.152487C15.2049 0.0519001 15.4649 8.44677e-05 15.7276 1.03327e-07C16.258 -0.000170278 16.7668 0.21038 17.142 0.585332C17.5172 0.960285 17.728 1.46892 17.7282 1.99936C17.7284 2.52979 17.5178 3.03857 17.1429 3.41376C16.7679 3.78895 16.2593 3.99983 15.7289 4Z" fill="#080C21"/>
<path d="M8.86472 4C9.96893 4 10.8641 3.10486 10.8641 2.00064C10.8641 0.896429 9.96893 0.00128619 8.86472 0.00128619C7.76051 0.00128619 6.86536 0.896429 6.86536 2.00064C6.86536 3.10486 7.76051 4 8.86472 4Z" fill="#080C21"/>
<path d="M1.99936 4C3.10357 4 3.99871 3.10486 3.99871 2.00064C3.99871 0.896429 3.10357 0.00128619 1.99936 0.00128619C0.895142 0.00128619 0 0.896429 0 2.00064C0 3.10486 0.895142 4 1.99936 4Z" fill="#080C21"/>
</svg>
