<svg width="18" height="4" viewBox="0 0 18 4" fill="none" xmlns="http://www.w3.org/2000/svg">
<path d="M15.7288 3.99998C15.4662 4.00007 15.2061 3.94842 14.9634 3.84799C14.7207 3.74756 14.5002 3.60031 14.3144 3.41465C14.1286 3.229 13.9812 3.00857 13.8806 2.76595C13.7801 2.52333 13.7282 2.26328 13.7282 2.00063C13.7281 1.73799 13.7797 1.4779 13.8802 1.23522C13.9806 0.992539 14.1278 0.772014 14.3135 0.586238C14.4991 0.400462 14.7196 0.253074 14.9622 0.152487C15.2048 0.0518999 15.4649 8.44674e-05 15.7275 1.03326e-07C16.2579 -0.000170278 16.7667 0.210379 17.1419 0.58533C17.5171 0.960281 17.728 1.46892 17.7281 1.99935C17.7283 2.52978 17.5178 3.03855 17.1428 3.41375C16.7679 3.78894 16.2592 3.99981 15.7288 3.99998Z" fill="#080C21"/>
<path d="M8.86469 3.99998C9.9689 3.99998 10.864 3.10485 10.864 2.00064C10.864 0.896425 9.9689 0.00128618 8.86469 0.00128618C7.76047 0.00128618 6.86533 0.896425 6.86533 2.00064C6.86533 3.10485 7.76047 3.99998 8.86469 3.99998Z" fill="#080C21"/>
<path d="M1.99935 3.99998C3.10356 3.99998 3.9987 3.10485 3.9987 2.00064C3.9987 0.896425 3.10356 0.00128618 1.99935 0.00128618C0.895139 0.00128618 0 0.896425 0 2.00064C0 3.10485 0.895139 3.99998 1.99935 3.99998Z" fill="#080C21"/>
</svg>
