<svg width="50" height="38" viewBox="0 0 50 38" fill="none" xmlns="http://www.w3.org/2000/svg">
<path d="M34.375 18.75H40.625V12.5H34.375V18.75Z" fill="black"/>
<path d="M0 6.25C0 4.5924 0.65848 3.00268 1.83058 1.83058C3.00269 0.65848 4.5924 0 6.25 0H43.75C45.4076 0 46.9973 0.65848 48.1694 1.83058C49.3415 3.00268 50 4.5924 50 6.25V31.25C50 32.9076 49.3415 34.4973 48.1694 35.6694C46.9973 36.8415 45.4076 37.5 43.75 37.5H6.25C4.5924 37.5 3.00269 36.8415 1.83058 35.6694C0.65848 34.4973 0 32.9076 0 31.25V6.25ZM26.5625 7.8125C26.5625 7.3981 26.3979 7.00067 26.1049 6.70765C25.8118 6.41462 25.4144 6.25 25 6.25C24.5856 6.25 24.1882 6.41462 23.8951 6.70765C23.6021 7.00067 23.4375 7.3981 23.4375 7.8125V29.6875C23.4375 30.1019 23.6021 30.4993 23.8951 30.7924C24.1882 31.0854 24.5856 31.25 25 31.25C25.4144 31.25 25.8118 31.0854 26.1049 30.7924C26.3979 30.4993 26.5625 30.1019 26.5625 29.6875V7.8125ZM6.25 10.9375C6.25 11.3519 6.41462 11.7493 6.70765 12.0424C7.00067 12.3354 7.3981 12.5 7.8125 12.5H18.75C19.1644 12.5 19.5618 12.3354 19.8549 12.0424C20.1479 11.7493 20.3125 11.3519 20.3125 10.9375C20.3125 10.5231 20.1479 10.1257 19.8549 9.83265C19.5618 9.53962 19.1644 9.375 18.75 9.375H7.8125C7.3981 9.375 7.00067 9.53962 6.70765 9.83265C6.41462 10.1257 6.25 10.5231 6.25 10.9375V10.9375ZM7.8125 15.625C7.3981 15.625 7.00067 15.7896 6.70765 16.0826C6.41462 16.3757 6.25 16.7731 6.25 17.1875C6.25 17.6019 6.41462 17.9993 6.70765 18.2924C7.00067 18.5854 7.3981 18.75 7.8125 18.75H18.75C19.1644 18.75 19.5618 18.5854 19.8549 18.2924C20.1479 17.9993 20.3125 17.6019 20.3125 17.1875C20.3125 16.7731 20.1479 16.3757 19.8549 16.0826C19.5618 15.7896 19.1644 15.625 18.75 15.625H7.8125ZM6.25 23.4375C6.25 23.8519 6.41462 24.2493 6.70765 24.5424C7.00067 24.8354 7.3981 25 7.8125 25H18.75C19.1644 25 19.5618 24.8354 19.8549 24.5424C20.1479 24.2493 20.3125 23.8519 20.3125 23.4375C20.3125 23.0231 20.1479 22.6257 19.8549 22.3326C19.5618 22.0396 19.1644 21.875 18.75 21.875H7.8125C7.3981 21.875 7.00067 22.0396 6.70765 22.3326C6.41462 22.6257 6.25 23.0231 6.25 23.4375V23.4375ZM31.25 10.9375V20.3125C31.25 20.7269 31.4146 21.1243 31.7076 21.4174C32.0007 21.7104 32.3981 21.875 32.8125 21.875H42.1875C42.6019 21.875 42.9993 21.7104 43.2924 21.4174C43.5854 21.1243 43.75 20.7269 43.75 20.3125V10.9375C43.75 10.5231 43.5854 10.1257 43.2924 9.83265C42.9993 9.53962 42.6019 9.375 42.1875 9.375H32.8125C32.3981 9.375 32.0007 9.53962 31.7076 9.83265C31.4146 10.1257 31.25 10.5231 31.25 10.9375Z" fill="black"/>
</svg>
