<svg width="22" height="22" viewBox="0 0 22 22" fill="none" xmlns="http://www.w3.org/2000/svg">
<path fill-rule="evenodd" clip-rule="evenodd" d="M21.4056 3.46392C22.198 2.6715 22.198 1.38673 21.4056 0.594314C20.6131 -0.198105 19.3284 -0.198105 18.536 0.594314L10.9999 8.13034L3.46392 0.594324C2.6715 -0.198094 1.38673 -0.198094 0.594314 0.594324C-0.198105 1.38674 -0.198105 2.67151 0.594314 3.46393L8.13033 10.9999L0.594314 18.536C-0.198105 19.3284 -0.198105 20.6131 0.594314 21.4056C1.38673 22.198 2.6715 22.198 3.46392 21.4056L10.9999 13.8695L18.536 21.4056C19.3284 22.198 20.6131 22.198 21.4056 21.4056C22.198 20.6132 22.198 19.3284 21.4056 18.536L13.8695 10.9999L21.4056 3.46392Z" fill="white"/>
</svg>
