<svg width="21" height="18" viewBox="0 0 21 18" fill="none" xmlns="http://www.w3.org/2000/svg">
<path d="M2.25 0C1.65326 0 1.08097 0.237053 0.65901 0.65901C0.237053 1.08097 0 1.65326 0 2.25V6.75C0 7.34674 0.237053 7.91903 0.65901 8.34099C1.08097 8.76295 1.65326 9 2.25 9H18.75C19.3467 9 19.919 8.76295 20.341 8.34099C20.7629 7.91903 21 7.34674 21 6.75V2.25C21 1.65326 20.7629 1.08097 20.341 0.65901C19.919 0.237053 19.3467 0 18.75 0H2.25ZM2.25 12C1.65326 12 1.08097 12.2371 0.65901 12.659C0.237053 13.081 0 13.6533 0 14.25V15.75C0 16.3467 0.237053 16.919 0.65901 17.341C1.08097 17.7629 1.65326 18 2.25 18H6.75C7.34674 18 7.91903 17.7629 8.34099 17.341C8.76295 16.919 9 16.3467 9 15.75V14.25C9 13.6533 8.76295 13.081 8.34099 12.659C7.91903 12.2371 7.34674 12 6.75 12H2.25ZM14.25 12C13.6533 12 13.081 12.2371 12.659 12.659C12.2371 13.081 12 13.6533 12 14.25V15.75C12 16.3467 12.2371 16.919 12.659 17.341C13.081 17.7629 13.6533 18 14.25 18H18.75C19.3467 18 19.919 17.7629 20.341 17.341C20.7629 16.919 21 16.3467 21 15.75V14.25C21 13.6533 20.7629 13.081 20.341 12.659C19.919 12.2371 19.3467 12 18.75 12H14.25Z" fill="#080C21"/>
</svg>
