<svg width="83" height="93" viewBox="0 0 83 93" fill="none" xmlns="http://www.w3.org/2000/svg">
<rect width="83" height="93" rx="10" fill="#F7C331"/>
<circle cx="41.5" cy="69.5" r="11.5" stroke="url(#paint0_linear_247_993)" stroke-width="2"/>
<circle cx="41.5" cy="69.5" r="9.5" fill="#F7F7F7"/>
<g clip-path="url(#clip0_247_993)">
<path d="M42.9987 65.0945C42.9626 65.0945 42.9084 65.0945 42.8723 65.1125V64.1556C42.8723 63.7583 42.5473 63.4333 42.1501 63.4333C41.8432 63.4333 41.5904 63.6139 41.4821 63.8667C41.3737 63.6139 41.1209 63.4333 40.814 63.4333C40.4168 63.4333 40.0918 63.7583 40.0918 64.1556V65.1125C40.0557 65.1125 40.0015 65.0945 39.9654 65.0945C39.5682 65.0945 39.2432 65.4195 39.2432 65.8167V71.5403C39.2432 71.9375 39.5682 72.2625 39.9654 72.2625C40.164 72.2625 40.3626 72.1722 40.489 72.0458C40.5793 72.1 40.7057 72.1361 40.814 72.1361V72.1722H42.6376C42.7459 72.2264 42.8543 72.2625 42.9987 72.2625C43.3959 72.2625 43.7209 71.9375 43.7209 71.5403V65.8167C43.7209 65.4195 43.414 65.0945 42.9987 65.0945V65.0945Z" fill="#EDC0A2"/>
<path d="M47.0431 71.0348C46.9889 70.9445 46.9348 70.8723 46.8626 70.8001C46.2306 70.1681 44.9126 70.4931 43.9014 71.5042C42.8903 72.5153 42.5653 73.8514 43.1973 74.4653C43.2514 74.5195 43.2876 74.5556 43.3417 74.5917L44.7501 76.0001H47.9639L48.0001 71.9917L47.0431 71.0348Z" fill="#357BA8"/>
<path d="M46.0319 70.6736C45.9958 70.6014 45.9416 70.5292 45.8694 70.475C44.6416 69.3917 43.2513 67.8028 43.2513 67.2431V64.3903C43.2513 63.9931 42.9263 63.6681 42.5291 63.6681C42.1319 63.6681 41.8069 63.9931 41.8069 64.3903V70.2584C41.8069 72.5153 43.1249 73.8153 43.1791 73.8695C43.2874 73.9598 43.4319 74.032 43.5763 74.0681H43.7208C44.0458 74.0681 44.7138 73.9417 45.5263 73.1292C46.4652 72.2084 46.2847 71.1611 46.0319 70.6736Z" fill="#FFD3B6"/>
<path d="M39.0805 71.5042C38.0694 70.4931 36.7333 70.1681 36.1194 70.8001C36.0472 70.8723 35.993 70.9445 35.9389 71.0348L34.9819 71.9917L35 76.0001H38.2139L39.6222 74.5917C39.6764 74.5556 39.7305 74.5195 39.7667 74.4653C40.4167 73.8334 40.0917 72.5153 39.0805 71.5042Z" fill="#357BA8"/>
<path d="M40.4528 63.6681C40.0556 63.6681 39.7306 63.9931 39.7306 64.3903V67.2431C39.7306 67.8028 38.3584 69.3917 37.1125 70.475C37.0403 70.5292 36.9862 70.6014 36.95 70.6736C36.6973 71.1611 36.5167 72.2084 37.4375 73.1473C38.25 73.9598 38.9181 74.0861 39.2431 74.0861H39.3875C39.532 74.0681 39.6764 73.9959 39.7848 73.8875C39.8389 73.8334 41.157 72.5514 41.157 70.2764V64.3903C41.175 63.9931 40.85 63.6681 40.4528 63.6681V63.6681Z" fill="#FFD3B6"/>
<path d="M44.8402 65.4917C44.8582 65.4917 44.8582 65.4917 44.8763 65.4736L46.1582 64.7514C46.1763 64.7333 46.1944 64.7153 46.1944 64.6972C46.1944 64.6792 46.1944 64.6611 46.1763 64.6431L45.6166 64.0833C45.5985 64.0833 45.5805 64.0653 45.5444 64.0833C45.5263 64.0833 45.5082 64.1014 45.4902 64.1195L44.768 65.4014C44.7499 65.4375 44.7499 65.4556 44.786 65.4917H44.8402Z" fill="#00BEEA"/>
<path d="M36.8957 64.7695L38.1777 65.4917C38.1957 65.4917 38.1957 65.5098 38.2138 65.5098C38.268 65.5098 38.286 65.4737 38.286 65.4375C38.286 65.4195 38.286 65.4014 38.268 65.3834L37.5638 64.1195C37.5457 64.0834 37.5277 64.0834 37.5096 64.0834C37.4916 64.0834 37.4735 64.0834 37.4555 64.1014L36.8957 64.6612C36.8777 64.6792 36.8777 64.6973 36.8777 64.7153C36.8777 64.7334 36.8777 64.7514 36.8957 64.7695V64.7695Z" fill="#00BEEA"/>
<path d="M46.2125 66.3763C46.1944 66.3583 46.1764 66.3583 46.1583 66.3583L44.75 66.7555C44.7139 66.7555 44.6958 66.7916 44.6958 66.8277C44.6958 66.8638 44.7139 66.8819 44.75 66.8999L46.1583 67.2972H46.1764C46.1944 67.2972 46.2125 67.2972 46.2125 67.2791C46.2305 67.2611 46.2486 67.243 46.2486 67.2249V66.4305C46.2305 66.4124 46.2305 66.3763 46.2125 66.3763Z" fill="#00BEEA"/>
<path d="M38.3223 66.7555L36.914 66.3583C36.8959 66.3583 36.8779 66.3583 36.8598 66.3763C36.8237 66.3763 36.8057 66.4124 36.8057 66.4305V67.2069C36.8057 67.2249 36.8237 67.243 36.8418 67.2611C36.8598 67.2791 36.8779 67.2791 36.8779 67.2791H36.8959L38.3043 66.8819C38.3404 66.8819 38.3584 66.8458 38.3584 66.8097C38.3584 66.7736 38.3404 66.7555 38.3223 66.7555V66.7555Z" fill="#00BEEA"/>
</g>
<defs>
<linearGradient id="paint0_linear_247_993" x1="41.5" y1="57" x2="41.5" y2="82" gradientUnits="userSpaceOnUse">
<stop offset="0.333333" stop-color="#242B4D"/>
<stop offset="1" stop-color="#F7F7F7"/>
</linearGradient>
<clipPath id="clip0_247_993">
<rect width="13" height="13" fill="white" transform="translate(35 63)"/>
</clipPath>
</defs>
</svg>
