<svg width="25" height="25" viewBox="0 0 25 25" fill="none" xmlns="http://www.w3.org/2000/svg">
<circle cx="12.5" cy="12.5" r="11.5" stroke="url(#paint0_linear_316_1257)" stroke-width="2"/>
<circle cx="12.5" cy="12.5" r="9.5" fill="#F7F7F7"/>
<g clip-path="url(#clip0_316_1257)">
<path d="M13.9986 8.09446C13.9625 8.09446 13.9083 8.09446 13.8722 8.11252V7.15557C13.8722 6.75835 13.5472 6.43335 13.15 6.43335C12.843 6.43335 12.5903 6.61391 12.4819 6.86668C12.3736 6.61391 12.1208 6.43335 11.8139 6.43335C11.4167 6.43335 11.0917 6.75835 11.0917 7.15557V8.11252C11.0555 8.11252 11.0014 8.09446 10.9653 8.09446C10.568 8.09446 10.243 8.41946 10.243 8.81668V14.5403C10.243 14.9375 10.568 15.2625 10.9653 15.2625C11.1639 15.2625 11.3625 15.1722 11.4889 15.0458C11.5792 15.1 11.7055 15.1361 11.8139 15.1361V15.1722H13.6375C13.7458 15.2264 13.8542 15.2625 13.9986 15.2625C14.3958 15.2625 14.7208 14.9375 14.7208 14.5403V8.81668C14.7208 8.41946 14.4139 8.09446 13.9986 8.09446V8.09446Z" fill="#EDC0A2"/>
<path d="M18.043 14.0348C17.9889 13.9445 17.9347 13.8723 17.8625 13.8001C17.2305 13.1681 15.9125 13.4931 14.9014 14.5042C13.8903 15.5153 13.5653 16.8514 14.1972 17.4653C14.2514 17.5195 14.2875 17.5556 14.3417 17.5917L15.75 19.0001H18.9639L19 14.9917L18.043 14.0348Z" fill="#357BA8"/>
<path d="M17.0319 13.6736C16.9958 13.6014 16.9417 13.5292 16.8694 13.475C15.6417 12.3917 14.2514 10.8028 14.2514 10.2431V7.39031C14.2514 6.99309 13.9264 6.66809 13.5292 6.66809C13.1319 6.66809 12.8069 6.99309 12.8069 7.39031V13.2584C12.8069 15.5153 14.125 16.8153 14.1792 16.8695C14.2875 16.9598 14.4319 17.032 14.5764 17.0681H14.7208C15.0458 17.0681 15.7139 16.9417 16.5264 16.1292C17.4653 15.2084 17.2847 14.1611 17.0319 13.6736Z" fill="#FFD3B6"/>
<path d="M10.0805 14.5042C9.06943 13.4931 7.73332 13.1681 7.11943 13.8001C7.04721 13.8723 6.99304 13.9445 6.93888 14.0348L5.98193 14.9917L5.99999 19.0001H9.21388L10.6222 17.5917C10.6764 17.5556 10.7305 17.5195 10.7667 17.4653C11.4167 16.8334 11.0917 15.5153 10.0805 14.5042Z" fill="#357BA8"/>
<path d="M11.4528 6.66809C11.0555 6.66809 10.7305 6.99309 10.7305 7.39031V10.2431C10.7305 10.8028 9.35832 12.3917 8.11248 13.475C8.04026 13.5292 7.9861 13.6014 7.94998 13.6736C7.69721 14.1611 7.51665 15.2084 8.43748 16.1473C9.24998 16.9598 9.91804 17.0861 10.243 17.0861H10.3875C10.5319 17.0681 10.6764 16.9959 10.7847 16.8875C10.8389 16.8334 12.1569 15.5514 12.1569 13.2764V7.39031C12.175 6.99309 11.85 6.66809 11.4528 6.66809V6.66809Z" fill="#FFD3B6"/>
<path d="M15.8402 8.49168C15.8583 8.49168 15.8583 8.49168 15.8764 8.47362L17.1583 7.7514C17.1764 7.73334 17.1944 7.71529 17.1944 7.69723C17.1944 7.67918 17.1944 7.66112 17.1764 7.64306L16.6166 7.08334C16.5986 7.08334 16.5805 7.06529 16.5444 7.08334C16.5264 7.08334 16.5083 7.1014 16.4902 7.11945L15.768 8.4014C15.75 8.43751 15.75 8.45557 15.7861 8.49168H15.8402Z" fill="#00BEEA"/>
<path d="M7.89586 7.76949L9.17781 8.49171C9.19586 8.49171 9.19586 8.50976 9.21392 8.50976C9.26809 8.50976 9.28614 8.47365 9.28614 8.43754C9.28614 8.41949 9.28614 8.40143 9.26809 8.38337L8.56392 7.11949C8.54586 7.08337 8.52781 7.08337 8.50975 7.08337C8.4917 7.08337 8.47364 7.08337 8.45559 7.10143L7.89586 7.66115C7.87781 7.67921 7.87781 7.69726 7.87781 7.71532C7.87781 7.73337 7.87781 7.75143 7.89586 7.76949V7.76949Z" fill="#00BEEA"/>
<path d="M17.2125 9.37633C17.1945 9.35828 17.1764 9.35828 17.1584 9.35828L15.75 9.7555C15.7139 9.7555 15.6959 9.79161 15.6959 9.82772C15.6959 9.86383 15.7139 9.88189 15.75 9.89994L17.1584 10.2972H17.1764C17.1945 10.2972 17.2125 10.2972 17.2125 10.2791C17.2306 10.2611 17.2486 10.243 17.2486 10.2249V9.4305C17.2306 9.41244 17.2306 9.37633 17.2125 9.37633Z" fill="#00BEEA"/>
<path d="M9.32221 9.7555L7.91388 9.35828C7.89582 9.35828 7.87776 9.35828 7.85971 9.37633C7.8236 9.37633 7.80554 9.41244 7.80554 9.4305V10.2069C7.80554 10.2249 7.8236 10.243 7.84165 10.2611C7.85971 10.2791 7.87776 10.2791 7.87776 10.2791H7.89582L9.30415 9.88189C9.34027 9.88189 9.35832 9.84578 9.35832 9.80966C9.35832 9.77355 9.34027 9.7555 9.32221 9.7555V9.7555Z" fill="#00BEEA"/>
</g>
<defs>
<linearGradient id="paint0_linear_316_1257" x1="12.5" y1="0" x2="12.5" y2="25" gradientUnits="userSpaceOnUse">
<stop offset="0.333333" stop-color="#242B4D"/>
<stop offset="1" stop-color="#F7F7F7"/>
</linearGradient>
<clipPath id="clip0_316_1257">
<rect width="13" height="13" fill="white" transform="translate(6 6)"/>
</clipPath>
</defs>
</svg>
