<svg width="16" height="17" viewBox="0 0 16 17" fill="none" xmlns="http://www.w3.org/2000/svg">
<path d="M11.0001 2.50028C11 1.91372 11.2062 1.34581 11.5826 0.895911C11.9589 0.446014 12.4815 0.142775 13.0588 0.0392505C13.6362 -0.0642743 14.2315 0.0385068 14.7408 0.329611C15.25 0.620716 15.6406 1.08161 15.8444 1.63165C16.0481 2.18169 16.0519 2.78585 15.8552 3.33844C15.6585 3.89102 15.2737 4.35684 14.7682 4.65439C14.2628 4.95194 13.6687 5.06227 13.0901 4.96609C12.5115 4.86991 11.9851 4.57333 11.6031 4.12825L4.88519 7.2482C5.03963 7.73764 5.03963 8.26275 4.88519 8.75218L11.6031 11.8721C12.0069 11.4025 12.5707 11.0995 13.1853 11.0218C13.7998 10.9441 14.4212 11.0974 14.9292 11.4518C15.4372 11.8063 15.7955 12.3367 15.9347 12.9402C16.0739 13.5438 15.9841 14.1776 15.6826 14.7187C15.3812 15.2598 14.8896 15.6697 14.3031 15.869C13.7167 16.0683 13.0771 16.0429 12.5084 15.7975C11.9396 15.5521 11.4822 15.1044 11.2248 14.541C10.9674 13.9776 10.9283 13.3387 11.1151 12.7481L4.3972 9.62817C4.06464 10.0157 3.62136 10.2922 3.127 10.4202C2.63263 10.5483 2.1109 10.5219 1.63198 10.3446C1.15306 10.1673 0.73993 9.8476 0.448166 9.42846C0.156402 9.00932 0 8.51088 0 8.00019C0 7.4895 0.156402 6.99106 0.448166 6.57193C0.73993 6.15279 1.15306 5.83306 1.63198 5.65575C2.1109 5.47844 2.63263 5.45205 3.127 5.58014C3.62136 5.70823 4.06464 5.98465 4.3972 6.37222L11.1151 3.25226C11.0386 3.00894 10.9998 2.75534 11.0001 2.50028V2.50028Z" fill="black"/>
</svg>
