<svg width="50" height="57" viewBox="0 0 50 57" fill="none" xmlns="http://www.w3.org/2000/svg">
<path d="M46.875 0H40.625C39.7962 0 39.0013 0.32924 38.4153 0.915291C37.8292 1.50134 37.5 2.2962 37.5 3.125V56.225H50V3.125C50 2.2962 49.6708 1.50134 49.0847 0.915291C48.4987 0.32924 47.7038 0 46.875 0ZM28.125 18.75H21.875C21.0462 18.75 20.2513 19.0792 19.6653 19.6653C19.0792 20.2513 18.75 21.0462 18.75 21.875V56.225H31.25V21.875C31.25 21.0462 30.9208 20.2513 30.3347 19.6653C29.7487 19.0792 28.9538 18.75 28.125 18.75ZM9.375 37.5H3.125C2.2962 37.5 1.50134 37.8292 0.915291 38.4153C0.32924 39.0013 0 39.7962 0 40.625V56.225H12.5V40.625C12.5 39.7962 12.1708 39.0013 11.5847 38.4153C10.9987 37.8292 10.2038 37.5 9.375 37.5Z" fill="black"/>
</svg>
