<svg width="25" height="25" viewBox="0 0 25 25" fill="none" xmlns="http://www.w3.org/2000/svg">
<circle cx="12.5" cy="12.5" r="11.5" stroke="url(#paint0_linear_314_1196)" stroke-width="2"/>
<circle cx="12.5" cy="12.5" r="9.5" fill="#F7F7F7"/>
<g clip-path="url(#clip0_314_1196)">
<path d="M13.9986 8.09446C13.9625 8.09446 13.9083 8.09446 13.8722 8.11252V7.15557C13.8722 6.75835 13.5472 6.43335 13.15 6.43335C12.843 6.43335 12.5903 6.61391 12.4819 6.86668C12.3736 6.61391 12.1208 6.43335 11.8139 6.43335C11.4167 6.43335 11.0917 6.75835 11.0917 7.15557V8.11252C11.0555 8.11252 11.0014 8.09446 10.9653 8.09446C10.568 8.09446 10.243 8.41946 10.243 8.81668V14.5403C10.243 14.9375 10.568 15.2625 10.9653 15.2625C11.1639 15.2625 11.3625 15.1722 11.4889 15.0458C11.5792 15.1 11.7055 15.1361 11.8139 15.1361V15.1722H13.6375C13.7458 15.2264 13.8542 15.2625 13.9986 15.2625C14.3958 15.2625 14.7208 14.9375 14.7208 14.5403V8.81668C14.7208 8.41946 14.4139 8.09446 13.9986 8.09446V8.09446Z" fill="#EDC0A2"/>
<path d="M18.043 14.0347C17.9889 13.9444 17.9347 13.8722 17.8625 13.8C17.2305 13.1681 15.9125 13.4931 14.9014 14.5042C13.8903 15.5153 13.5653 16.8514 14.1972 17.4653C14.2514 17.5194 14.2875 17.5556 14.3417 17.5917L15.75 19H18.9639L19 14.9917L18.043 14.0347Z" fill="#357BA8"/>
<path d="M17.0319 13.6736C16.9958 13.6014 16.9417 13.5291 16.8694 13.475C15.6417 12.3916 14.2514 10.8028 14.2514 10.243V7.39025C14.2514 6.99303 13.9264 6.66803 13.5292 6.66803C13.1319 6.66803 12.8069 6.99303 12.8069 7.39025V13.2583C12.8069 15.5153 14.125 16.8153 14.1792 16.8694C14.2875 16.9597 14.4319 17.0319 14.5764 17.068H14.7208C15.0458 17.068 15.7139 16.9416 16.5264 16.1291C17.4653 15.2083 17.2847 14.1611 17.0319 13.6736Z" fill="#FFD3B6"/>
<path d="M10.0805 14.5042C9.06943 13.4931 7.73332 13.1681 7.11943 13.8C7.04721 13.8722 6.99304 13.9444 6.93888 14.0347L5.98193 14.9917L5.99999 19H9.21388L10.6222 17.5917C10.6764 17.5556 10.7305 17.5194 10.7667 17.4653C11.4167 16.8333 11.0917 15.5153 10.0805 14.5042Z" fill="#357BA8"/>
<path d="M11.4528 6.66803C11.0555 6.66803 10.7305 6.99303 10.7305 7.39025V10.243C10.7305 10.8028 9.35832 12.3916 8.11248 13.475C8.04026 13.5291 7.9861 13.6014 7.94998 13.6736C7.69721 14.1611 7.51665 15.2083 8.43748 16.1472C9.24998 16.9597 9.91804 17.0861 10.243 17.0861H10.3875C10.5319 17.068 10.6764 16.9958 10.7847 16.8875C10.8389 16.8333 12.1569 15.5514 12.1569 13.2764V7.39025C12.175 6.99303 11.85 6.66803 11.4528 6.66803V6.66803Z" fill="#FFD3B6"/>
<path d="M15.8402 8.49168C15.8583 8.49168 15.8583 8.49168 15.8764 8.47362L17.1583 7.7514C17.1764 7.73334 17.1944 7.71529 17.1944 7.69723C17.1944 7.67918 17.1944 7.66112 17.1764 7.64306L16.6166 7.08334C16.5986 7.08334 16.5805 7.06529 16.5444 7.08334C16.5264 7.08334 16.5083 7.1014 16.4902 7.11945L15.768 8.4014C15.75 8.43751 15.75 8.45557 15.7861 8.49168H15.8402Z" fill="#00BEEA"/>
<path d="M7.89586 7.76942L9.17781 8.49165C9.19586 8.49165 9.19586 8.5097 9.21392 8.5097C9.26809 8.5097 9.28614 8.47359 9.28614 8.43748C9.28614 8.41942 9.28614 8.40137 9.26809 8.38331L8.56392 7.11942C8.54586 7.08331 8.52781 7.08331 8.50975 7.08331C8.4917 7.08331 8.47364 7.08331 8.45559 7.10137L7.89586 7.66109C7.87781 7.67915 7.87781 7.6972 7.87781 7.71526C7.87781 7.73331 7.87781 7.75137 7.89586 7.76942V7.76942Z" fill="#00BEEA"/>
<path d="M17.2125 9.37639C17.1945 9.35834 17.1764 9.35834 17.1584 9.35834L15.75 9.75556C15.7139 9.75556 15.6959 9.79167 15.6959 9.82778C15.6959 9.86389 15.7139 9.88195 15.75 9.9L17.1584 10.2972H17.1764C17.1945 10.2972 17.2125 10.2972 17.2125 10.2792C17.2306 10.2611 17.2486 10.2431 17.2486 10.225V9.43056C17.2306 9.4125 17.2306 9.37639 17.2125 9.37639Z" fill="#00BEEA"/>
<path d="M9.32221 9.75556L7.91388 9.35834C7.89582 9.35834 7.87776 9.35834 7.85971 9.37639C7.8236 9.37639 7.80554 9.4125 7.80554 9.43056V10.2069C7.80554 10.225 7.8236 10.2431 7.84165 10.2611C7.85971 10.2792 7.87776 10.2792 7.87776 10.2792H7.89582L9.30415 9.88195C9.34027 9.88195 9.35832 9.84584 9.35832 9.80973C9.35832 9.77361 9.34027 9.75556 9.32221 9.75556V9.75556Z" fill="#00BEEA"/>
</g>
<defs>
<linearGradient id="paint0_linear_314_1196" x1="12.5" y1="0" x2="12.5" y2="25" gradientUnits="userSpaceOnUse">
<stop offset="0.333333" stop-color="#242B4D"/>
<stop offset="1" stop-color="#F7F7F7"/>
</linearGradient>
<clipPath id="clip0_314_1196">
<rect width="13" height="13" fill="white" transform="translate(6 6)"/>
</clipPath>
</defs>
</svg>
