<svg width="50" height="67" viewBox="0 0 50 67" fill="none" xmlns="http://www.w3.org/2000/svg">
<path d="M33.3337 16.6668C37.9366 16.6668 41.6671 12.9363 41.6671 8.33342C41.6671 3.73051 37.9366 0 33.3337 0C28.7307 0 25.0002 3.73051 25.0002 8.33342C25.0002 12.9363 28.7307 16.6668 33.3337 16.6668ZM29.3453 38.7699C31.1761 40.947 34.4235 41.2556 36.6332 39.4496L48.0916 30.0719C50.3169 28.2516 50.6424 24.969 48.8234 22.7437C47.0044 20.5158 43.7205 20.1929 41.4913 22.0119L34.012 28.1318L28.9456 22.1018C26.9352 19.7072 23.8388 18.4663 20.6122 18.8036C17.4624 19.1265 14.7202 20.9221 13.2723 23.6109L6.84382 35.5941C3.79691 41.2764 5.7123 48.1424 11.2957 51.7075L17.1304 56.2506H5.20838C2.33205 56.2506 0 58.5826 0 61.4589C0 64.3353 2.33205 66.6673 5.20838 66.6673H32.292C36.7295 66.6673 39.2934 61.0957 35.9743 57.7766L21.6695 43.4718L26.2008 35.0251L29.3453 38.7699V38.7699Z" fill="#080C21"/>
</svg>
