<svg width="17" height="23" viewBox="0 0 17 23" fill="none" xmlns="http://www.w3.org/2000/svg">
<path d="M14.875 2.83333H11.3333C11.3333 1.27057 10.0628 0 8.5 0C6.93724 0 5.66667 1.27057 5.66667 2.83333H2.125C0.951823 2.83333 0 3.78516 0 4.95833V20.5417C0 21.7148 0.951823 22.6667 2.125 22.6667H14.875C16.0482 22.6667 17 21.7148 17 20.5417V4.95833C17 3.78516 16.0482 2.83333 14.875 2.83333ZM8.5 1.77083C9.0888 1.77083 9.5625 2.24453 9.5625 2.83333C9.5625 3.42214 9.0888 3.89583 8.5 3.89583C7.9112 3.89583 7.4375 3.42214 7.4375 2.83333C7.4375 2.24453 7.9112 1.77083 8.5 1.77083ZM12.75 15.2292C12.75 15.424 12.5906 15.5833 12.3958 15.5833H9.91667V18.0625C9.91667 18.2573 9.75729 18.4167 9.5625 18.4167H7.4375C7.24271 18.4167 7.08333 18.2573 7.08333 18.0625V15.5833H4.60417C4.40937 15.5833 4.25 15.424 4.25 15.2292V13.1042C4.25 12.9094 4.40937 12.75 4.60417 12.75H7.08333V10.2708C7.08333 10.076 7.24271 9.91667 7.4375 9.91667H9.5625C9.75729 9.91667 9.91667 10.076 9.91667 10.2708V12.75H12.3958C12.5906 12.75 12.75 12.9094 12.75 13.1042V15.2292ZM12.75 6.72917C12.75 6.92396 12.5906 7.08333 12.3958 7.08333H4.60417C4.40937 7.08333 4.25 6.92396 4.25 6.72917V6.02083C4.25 5.82604 4.40937 5.66667 4.60417 5.66667H12.3958C12.5906 5.66667 12.75 5.82604 12.75 6.02083V6.72917Z" fill="#080C21"/>
</svg>
