<svg width="14" height="14" viewBox="0 0 14 14" fill="none" xmlns="http://www.w3.org/2000/svg">
<path d="M12.5755 4.5647C12.5916 4.4429 12.6 4.3211 12.6 4.2C12.6 2.5347 11.0999 1.1984 9.4353 1.4245C8.9502 0.5614 8.0262 0 7 0C5.9738 0 5.0498 0.5614 4.5647 1.4245C2.8966 1.1984 1.4 2.5347 1.4 4.2C1.4 4.3211 1.4084 4.4429 1.4245 4.5647C0.5614 5.0505 0 5.9745 0 7C0 8.0255 0.5614 8.9495 1.4245 9.4353C1.40835 9.5562 1.40017 9.67803 1.4 9.8C1.4 11.4653 2.8966 12.7981 4.5647 12.5755C5.0498 13.4386 5.9738 14 7 14C8.0262 14 8.9502 13.4386 9.4353 12.5755C11.0999 12.7981 12.6 11.4653 12.6 9.8C12.6 9.6789 12.5916 9.5571 12.5755 9.4353C13.4386 8.9495 14 8.0255 14 7C14 5.9745 13.4386 5.0505 12.5755 4.5647ZM6.2685 10.0912L3.7016 7.4914L4.6984 6.5086L6.2783 8.1088L9.3072 5.103L10.2928 6.097L6.2685 10.0912V10.0912Z" fill="#4BD37B"/>
</svg>
