<svg width="40" height="40" viewBox="0 0 40 40" fill="none" xmlns="http://www.w3.org/2000/svg">
<path d="M0 16C0 7.16344 7.16344 0 16 0H24C32.8366 0 40 7.16344 40 16V24C40 32.8366 32.8366 40 24 40H16C7.16344 40 0 32.8366 0 24V16Z" fill="#F7C331"/>
<path d="M22.8692 16.9398C22.8078 17.2152 22.6536 17.4093 22.4694 17.4093C22.2869 17.4093 22.1227 17.2102 22.0596 16.9381L18.7715 17.9187L19.0967 20.532L19.7304 20.9966L22.7299 20.7643L23.7352 17.7794L23.5643 16.8983L22.8692 16.9398Z" fill="url(#paint0_linear_443_420)"/>
<path d="M22.6387 17.9485C22.6703 17.8207 22.7018 17.683 22.7366 17.537C23.2891 15.1295 24.1998 10.2398 24.4338 9.61756C24.681 8.95719 25.1554 8.52413 26.1458 8.70997C27.1363 8.8958 27.4448 9.90626 27.0948 11.1225C26.7447 12.3387 25.8987 16.9994 25.8987 18.5873C25.8987 20.1751 26.4959 23.3094 26.4959 23.3094L22.0415 21.6601L22.6387 17.9485Z" fill="url(#paint1_linear_443_420)"/>
<path d="M13.1327 23.6613C13.1327 24.4195 13.5043 24.7597 13.6901 24.8824C13.7515 24.9239 13.793 24.9405 13.793 24.9405L17.257 27.4459L23.5976 26.1468L23.4035 22.1348C19.9827 21.6968 16.892 20.0492 13.3417 19.7604C12.9519 21.0314 13.1327 22.7769 13.1327 23.6613Z" fill="url(#paint2_linear_443_420)"/>
<path d="M21.2552 19.2161C21.2552 19.2161 14.1962 17.9783 13.5459 19.2476C13.4646 19.4052 13.3982 19.5778 13.3418 19.7586C16.892 20.049 19.9827 21.6949 23.4035 22.133L23.3189 20.3908L21.2552 19.2161Z" fill="url(#paint3_linear_443_420)"/>
<path d="M18.4315 8.81289C17.2155 9.30734 17.3383 10.5036 17.8127 11.7829C18.2872 13.0621 19.2146 18.6703 19.2146 18.6703H22.4728C22.4728 18.6703 22.3683 18.2273 22.2024 17.537C21.7147 15.4945 20.701 11.2868 20.3278 9.98927C19.8964 8.48271 18.4315 8.81289 18.4315 8.81289Z" fill="url(#paint4_linear_443_420)"/>
<path d="M19.8845 23.779C21.4456 23.6147 22.4377 24.8923 22.5604 25.5576L23.0714 25.3718L22.8392 22.8199L21.1851 21.7531L18.9737 21.1956L16.7308 20.0209L16.3027 18.6802C16.2911 18.6802 16.1833 18.6785 16.1717 18.6785L14.02 18.8976C13.7877 18.9838 13.6201 19.0967 13.5438 19.246C13.2585 19.8035 13.149 20.5286 13.1108 21.252C13.4459 21.9273 14.2008 22.2774 14.8594 22.2774C15.6325 22.2774 16.097 21.69 16.3757 21.1939C16.3757 21.1939 16.4272 22.0916 17.6697 22.4317C17.6697 22.4333 18.5921 23.915 19.8845 23.779Z" fill="url(#paint5_linear_443_420)"/>
<path d="M20.1951 20.5169C19.9164 19.6508 20.0906 20.2846 19.8998 18.5673C19.6891 16.6675 19.0869 15.8445 18.6174 13.1234C18.3204 11.3979 17.6087 10.2347 18.0932 8.99365C17.2487 9.56276 17.3881 10.6379 17.8128 11.7828C18.1728 12.7534 18.7932 16.2129 19.072 17.829L18.7717 17.9186L19.0968 20.5318L19.7306 20.9964L20.1171 20.9665C20.2166 20.8587 20.2581 20.7143 20.1951 20.5169Z" fill="url(#paint6_linear_443_420)"/>
<path d="M26.2967 22.1795C26.1225 21.1226 25.8969 19.5662 25.8969 18.5873C25.8969 16.9994 26.743 12.3387 27.0931 11.1225C27.2838 10.4621 27.2722 9.8681 27.0698 9.42841C26.8309 11.1988 25.8007 13.7125 25.731 16.062C25.6016 20.4804 24.6311 20.3925 23.9741 20.7642C24.865 21.1292 25.7061 21.5788 26.2967 22.1795Z" fill="url(#paint7_linear_443_420)"/>
<path d="M25.5752 8.67676C24.9647 8.72653 24.6263 9.09986 24.4322 9.61753C24.3791 9.76188 24.2878 10.1319 24.175 10.6479C23.8349 12.1943 23.2841 15.0398 22.8677 16.943C22.8229 17.1421 22.6786 17.4109 22.4696 17.4092C22.4696 17.4092 22.4712 17.4092 22.4696 17.4092C22.2871 17.4092 22.1228 17.2101 22.0598 16.938C21.5389 14.7628 20.6679 11.1706 20.3278 9.9892C20.0889 9.15627 19.5348 8.88582 19.0869 8.81115C20.5186 9.09322 21.0744 16.3523 22.4547 18.0347C22.4547 18.0347 23.4882 18.0015 24.2513 11.5887C24.4853 9.62251 25.2384 8.73649 25.5752 8.67676Z" fill="url(#paint8_linear_443_420)"/>
<path d="M14.8413 21.9705C13.9305 21.9705 13.1757 21.2288 13.0512 19.8367C13.0396 19.704 12.7808 16.9597 14.3386 16.9597C15.7836 16.9597 16.1917 17.5172 16.2863 19.3722C16.3808 21.2272 15.7853 21.9705 14.8413 21.9705Z" fill="url(#paint9_linear_443_420)"/>
<path d="M18.2935 22.1861C17.1687 22.1861 16.6064 21.6917 16.4504 20.2847C16.2945 18.8777 15.6176 16.3407 17.683 16.2047C19.6622 16.0753 19.7004 17.2998 19.7004 19.3406C19.7004 21.3814 19.2624 22.1861 18.2935 22.1861Z" fill="url(#paint10_linear_443_420)"/>
<path d="M18.2308 20.2381C17.3714 20.6712 16.7941 20.6795 16.4258 20.0888C16.4341 20.1552 16.444 20.2232 16.4507 20.2846C16.6066 21.6932 17.169 22.186 18.2938 22.186C19.0851 22.186 19.5215 21.6484 19.6542 20.3393C19.4335 19.9594 18.7368 19.9826 18.2308 20.2381Z" fill="url(#paint11_linear_443_420)"/>
<path d="M14.8115 20.1751C14.0451 20.1751 13.4097 19.6989 13.3052 18.8046C13.3483 19.1696 13.0248 16.9578 14.3885 16.9578C15.6045 16.9578 15.9479 17.3146 16.0276 18.5076C16.1072 19.6989 15.6045 20.1751 14.8115 20.1751Z" fill="url(#paint12_linear_443_420)"/>
<path d="M18.1375 20.0822C17.2151 20.0822 16.7987 19.596 16.6428 18.5989C16.5615 18.0862 16.0373 16.2975 17.7327 16.2013C19.3569 16.1084 19.3569 17.2964 19.3917 18.3035C19.4398 19.7553 18.9322 20.0822 18.1375 20.0822Z" fill="url(#paint13_linear_443_420)"/>
<path d="M17.6235 22.1031C17.821 22.1579 18.0416 22.1878 18.2954 22.1878C19.2643 22.1878 19.7023 21.383 19.7023 19.3422C19.7023 17.3744 19.6624 16.1698 17.8857 16.2013C18.5841 16.6178 19.1531 17.5669 19.1531 19.2808C19.1531 21.7182 18.6057 22.0982 17.6235 22.1031Z" fill="url(#paint14_linear_443_420)"/>
<path d="M17.6699 21.4345C17.6699 20.6099 18.2539 20.5833 19.815 20.444C20.9315 20.3444 22.1442 20.0524 23.6921 20.6497C25.4572 21.3316 27.1146 22.3205 27.1361 24.0942C27.1544 25.6821 25.9201 31.3334 20.5168 31.3334C15.1134 31.3334 13.3002 28.4464 13.1343 23.6612L22.5623 25.5577C22.5623 25.5577 22.763 23.8719 21.6084 23.3725C21.1157 23.1584 20.0622 23.331 19.3604 23.331C18.6587 23.331 17.6699 22.5478 17.6699 21.4345Z" fill="url(#paint15_linear_443_420)"/>
<path d="M14.8514 21.1044C13.9257 21.1044 13.1593 20.3677 13 18.9922C13.0066 19.2693 13.0265 19.5547 13.0531 19.8368C13.1792 21.2288 13.9324 21.9705 14.8431 21.9705C15.7274 21.9705 16.2997 21.3052 16.2898 19.6907C16.1007 20.6813 15.5748 21.1044 14.8514 21.1044Z" fill="url(#paint16_linear_443_420)"/>
<path d="M16.288 19.372C16.1985 17.6033 15.8219 17.016 14.5361 16.9645C15.2097 17.0757 16.5137 19.6707 14.7186 21.9571C14.7601 21.9604 14.7999 21.9704 14.8431 21.9704C15.7854 21.9704 16.3809 21.227 16.288 19.372Z" fill="url(#paint17_linear_443_420)"/>
<path d="M23.1131 23.9084C23.0716 22.9179 21.8556 21.929 20.8453 22.0318C19.9726 22.1214 18.3933 22.2393 17.6865 21.5922C17.7761 22.6192 18.6935 23.331 19.3605 23.331C20.0622 23.331 21.1157 23.1585 21.6084 23.3725C22.7631 23.8719 22.5623 25.5577 22.5623 25.5577C22.5623 25.5577 23.1546 24.899 23.1131 23.9084Z" fill="url(#paint18_linear_443_420)"/>
<path d="M27.1328 24.0942C27.1129 22.3205 25.4539 21.3333 23.6887 20.6497C22.1425 20.0524 20.9282 20.3444 19.8117 20.444C18.6205 20.5502 18.0017 20.5933 17.7744 20.9716C19.2426 20.6082 20.6163 20.4606 22.3118 20.6547C24.5199 20.9069 26.1905 22.2691 26.4941 23.3094C26.7944 24.3381 26.7496 26.2545 26.7496 26.301C27.0349 25.3785 27.1394 24.5605 27.1328 24.0942Z" fill="url(#paint19_linear_443_420)"/>
<path d="M22.5606 25.5576C22.5888 25.1561 22.5556 24.7463 22.4279 24.3663C22.3051 23.9897 22.0629 23.633 21.7062 23.4571C21.3595 23.263 20.9331 23.2995 20.5383 23.3078C20.1368 23.3243 19.737 23.3708 19.3272 23.3691C18.4878 23.2961 17.8059 22.581 17.6517 21.773C17.6135 21.5706 17.6035 21.3615 17.645 21.1508C17.6882 20.94 17.8507 20.7476 18.0482 20.6696C18.438 20.5037 18.8495 20.4838 19.2493 20.4356C20.0555 20.3859 20.8485 20.2415 21.6631 20.2365C22.4777 20.2249 23.2889 20.4141 24.0272 20.7443C24.7687 21.0595 25.502 21.4312 26.1125 21.9704C26.723 22.5014 27.1461 23.2795 27.1311 24.0959C27.1245 23.2779 26.6882 22.5229 26.0744 22.0136C25.4672 21.4876 24.7372 21.1242 23.9973 20.8173C23.2607 20.4954 22.4661 20.3195 21.6631 20.3361C20.8635 20.346 20.0622 20.4987 19.2592 20.5535C18.8627 20.5966 18.4496 20.6182 18.093 20.7675C17.9138 20.8405 17.7894 20.9898 17.7446 21.174C17.7047 21.3598 17.7114 21.5623 17.7462 21.7547C17.8789 22.5196 18.5425 23.2182 19.3272 23.2895C19.7254 23.2961 20.1285 23.2513 20.5333 23.2381C20.9298 23.2347 21.3628 23.1949 21.7311 23.4056C22.0994 23.5998 22.3383 23.9731 22.4528 24.3564C22.5755 24.7463 22.5988 25.1578 22.5606 25.5576Z" fill="#975500"/>
<path d="M16.228 18.6785C16.3027 19.2676 16.3773 19.8682 16.2861 20.4672C16.2446 20.7642 16.1716 21.0628 16.0273 21.3333C15.8879 21.6071 15.6441 21.8327 15.3521 21.9455C14.7598 22.1397 14.0713 21.9572 13.6665 21.4959C13.2435 21.0462 13.0859 20.4257 13.0527 19.8367C13.1324 20.4207 13.3182 21.0164 13.7246 21.4428C14.1195 21.8759 14.7731 22.0252 15.3123 21.836C15.873 21.6469 16.1285 21.0247 16.2098 20.4572C16.3027 19.8715 16.2579 19.2725 16.228 18.6785Z" fill="#975500"/>
<path d="M17.8505 22.1496C17.6597 22.2127 17.4872 22.1281 17.3279 22.0451C17.167 21.9605 17.0227 21.8443 16.9049 21.7066C16.666 21.4312 16.5416 21.0844 16.4653 20.7426C16.3972 20.3942 16.3873 20.0491 16.3392 19.7056C16.2977 19.3621 16.2596 19.0154 16.2446 18.6702C16.2894 19.0137 16.3491 19.3555 16.4055 19.6973C16.4719 20.0374 16.5001 20.3875 16.5814 20.7177C16.6577 21.0479 16.7821 21.3731 17.0044 21.622C17.1139 21.7464 17.245 21.8493 17.3926 21.924C17.5386 22.0036 17.6996 22.0219 17.8505 22.1496Z" fill="#975500"/>
<path d="M18.6157 16.271C18.8065 16.3191 18.9923 16.3988 19.1499 16.5249C19.3075 16.6526 19.417 16.8285 19.4983 17.011C19.6609 17.381 19.704 17.7825 19.7388 18.1758C19.7571 18.5707 19.7587 18.9656 19.7504 19.3588C19.7471 19.5546 19.7521 19.752 19.7421 19.9495C19.7355 20.049 19.7338 20.1486 19.7123 20.2481C19.694 20.3344 19.6492 20.4804 19.5298 20.4705C19.6277 20.4356 19.6244 20.3228 19.6476 20.2365C19.6592 20.1419 19.6708 20.0457 19.6692 19.9478C19.6725 19.752 19.6609 19.5579 19.6559 19.3588C19.6443 18.9656 19.6492 18.5723 19.6227 18.1824C19.6011 17.7942 19.5762 17.3993 19.4336 17.0392C19.3009 16.6709 18.9923 16.3888 18.6157 16.271Z" fill="#975500"/>
<path d="M19.8844 23.779C18.5921 23.915 17.668 22.4334 17.668 22.4334C16.4254 22.0932 16.374 21.1956 16.374 21.1956C16.0953 21.69 15.6324 22.279 14.8577 22.279C14.1991 22.279 13.4459 21.929 13.1091 21.2537C13.1174 21.1043 13.1307 20.9533 13.1456 20.8057H13.1406C13.0992 21.2138 13.0876 21.6286 13.0909 22.0268C13.7561 22.7901 14.798 22.8979 15.4632 22.7005C15.6441 22.6474 16.4852 22.0119 17.1355 22.6507C17.8406 23.3426 18.6601 24.2286 20.0669 24.1971C21.4738 24.1656 22.5587 25.5577 22.5587 25.5577C22.4376 24.894 21.4472 23.6147 19.8844 23.779Z" fill="url(#paint20_linear_443_420)"/>
<path opacity="0.5" d="M14.1281 23.8237C13.632 24.4211 15.14 27.8606 16.6282 28.7267C18.1163 29.5928 19.9826 29.3274 20.346 28.6388C20.7093 27.9502 19.1614 26.88 17.8973 25.6953C15.7124 23.6512 14.6241 23.2264 14.1281 23.8237Z" fill="url(#paint21_radial_443_420)"/>
<path opacity="0.5" d="M26.2601 24.2651C26.5238 23.91 25.2049 21.7083 24.1531 21.1143C23.1013 20.5203 21.0276 20.8737 20.86 21.2902C20.6925 21.7066 22.6882 22.1762 23.6272 22.9627C25.2464 24.3165 25.9963 24.6202 26.2601 24.2651Z" fill="url(#paint22_radial_443_420)"/>
<path opacity="0.5" d="M17.8691 9.96605C17.7961 9.69891 18.3303 9.24097 18.682 9.14805C19.0337 9.0568 19.3771 9.19783 19.4517 9.46496C19.5247 9.7321 19.1763 9.98098 18.8711 10.2033C18.3452 10.5866 17.9421 10.2332 17.8691 9.96605Z" fill="url(#paint23_radial_443_420)"/>
<path opacity="0.5" d="M25.2017 9.05668C25.2913 8.77793 25.9632 8.88578 26.2884 9.12471C26.6135 9.36364 26.8043 9.78342 26.7147 10.0622C26.6251 10.3409 26.2154 10.2314 25.8537 10.1368C25.2316 9.97589 25.1121 9.33543 25.2017 9.05668Z" fill="url(#paint24_radial_443_420)"/>
<path d="M26.4823 22.3853C26.5851 24.6285 26.2451 26.3873 24.3704 27.7545C22.0462 29.4502 22.2353 30.3927 20.0686 30.3927C17.902 30.3927 16.5051 29.2461 15.5147 28.2572C14.526 27.2684 13.6932 25.6191 13.285 24.3631C13.2436 24.237 13.1988 24.1241 13.1523 24.0146C13.3945 28.5841 15.2476 31.3334 20.5133 31.3334C25.9149 31.3334 27.1509 25.6821 27.1326 24.0959C27.126 23.419 26.8804 22.8598 26.4823 22.3853Z" fill="url(#paint25_linear_443_420)"/>
<defs>
<linearGradient id="paint0_linear_443_420" x1="21.2545" y1="23.9189" x2="21.2545" y2="17.2372" gradientUnits="userSpaceOnUse">
<stop offset="0.00132565" stop-color="#D2A374"/>
<stop offset="1" stop-color="#DEBA94"/>
</linearGradient>
<linearGradient id="paint1_linear_443_420" x1="24.6362" y1="23.9188" x2="24.6362" y2="17.2371" gradientUnits="userSpaceOnUse">
<stop offset="0.00132565" stop-color="#D2A374"/>
<stop offset="1" stop-color="#DEBA94"/>
</linearGradient>
<linearGradient id="paint2_linear_443_420" x1="13.4878" y1="23.6022" x2="26.5683" y2="23.6022" gradientUnits="userSpaceOnUse">
<stop offset="0.00132565" stop-color="#D2A374"/>
<stop offset="1" stop-color="#DEBA94"/>
</linearGradient>
<linearGradient id="paint3_linear_443_420" x1="18.3726" y1="23.9187" x2="18.3726" y2="17.237" gradientUnits="userSpaceOnUse">
<stop offset="0.00132565" stop-color="#D2A374"/>
<stop offset="1" stop-color="#DEBA94"/>
</linearGradient>
<linearGradient id="paint4_linear_443_420" x1="19.9743" y1="23.9188" x2="19.9743" y2="17.2371" gradientUnits="userSpaceOnUse">
<stop offset="0.00132565" stop-color="#D2A374"/>
<stop offset="1" stop-color="#DEBA94"/>
</linearGradient>
<linearGradient id="paint5_linear_443_420" x1="14.4126" y1="30.98" x2="18.4562" y2="21.9791" gradientUnits="userSpaceOnUse">
<stop stop-color="#D2A374" stop-opacity="0"/>
<stop offset="1" stop-color="#B88653"/>
</linearGradient>
<linearGradient id="paint6_linear_443_420" x1="17.37" y1="10.7138" x2="21.5613" y2="24.5548" gradientUnits="userSpaceOnUse">
<stop stop-color="#D2A374" stop-opacity="0"/>
<stop offset="1" stop-color="#B88653"/>
</linearGradient>
<linearGradient id="paint7_linear_443_420" x1="16.0322" y1="-5.91104" x2="51.4502" y2="72.471" gradientUnits="userSpaceOnUse">
<stop stop-color="#D2A374" stop-opacity="0"/>
<stop offset="1" stop-color="#B88653"/>
</linearGradient>
<linearGradient id="paint8_linear_443_420" x1="22.3313" y1="5.44039" x2="22.3313" y2="33.1295" gradientUnits="userSpaceOnUse">
<stop stop-color="#D2A374" stop-opacity="0"/>
<stop offset="1" stop-color="#B88653"/>
</linearGradient>
<linearGradient id="paint9_linear_443_420" x1="14.6626" y1="19.0314" x2="14.6626" y2="24.7624" gradientUnits="userSpaceOnUse">
<stop offset="0.00132565" stop-color="#D2A374"/>
<stop offset="1" stop-color="#DEBA94"/>
</linearGradient>
<linearGradient id="paint10_linear_443_420" x1="17.9598" y1="19.0314" x2="17.9598" y2="24.7623" gradientUnits="userSpaceOnUse">
<stop offset="0.00132565" stop-color="#D2A374"/>
<stop offset="1" stop-color="#DEBA94"/>
</linearGradient>
<linearGradient id="paint11_linear_443_420" x1="18.0408" y1="18.8883" x2="18.0408" y2="26.4824" gradientUnits="userSpaceOnUse">
<stop stop-color="#D2A374" stop-opacity="0"/>
<stop offset="1" stop-color="#B88653"/>
</linearGradient>
<linearGradient id="paint12_linear_443_420" x1="14.6674" y1="19.8664" x2="14.6674" y2="15.467" gradientUnits="userSpaceOnUse">
<stop offset="0.00132565" stop-color="#D2A374"/>
<stop offset="1" stop-color="#DEBA94"/>
</linearGradient>
<linearGradient id="paint13_linear_443_420" x1="17.9488" y1="19.8665" x2="17.9488" y2="15.467" gradientUnits="userSpaceOnUse">
<stop offset="0.00132565" stop-color="#D2A374"/>
<stop offset="1" stop-color="#DEBA94"/>
</linearGradient>
<linearGradient id="paint14_linear_443_420" x1="15.7427" y1="17.8152" x2="29.8722" y2="25.8408" gradientUnits="userSpaceOnUse">
<stop stop-color="#D2A374" stop-opacity="0"/>
<stop offset="1" stop-color="#B88653"/>
</linearGradient>
<linearGradient id="paint15_linear_443_420" x1="13.4877" y1="25.8085" x2="26.5682" y2="25.8085" gradientUnits="userSpaceOnUse">
<stop offset="0.00132565" stop-color="#D2A374"/>
<stop offset="1" stop-color="#DEBA94"/>
</linearGradient>
<linearGradient id="paint16_linear_443_420" x1="14.6135" y1="18.8863" x2="15.0056" y2="25.3861" gradientUnits="userSpaceOnUse">
<stop stop-color="#D2A374" stop-opacity="0"/>
<stop offset="1" stop-color="#B88653"/>
</linearGradient>
<linearGradient id="paint17_linear_443_420" x1="11.1775" y1="17.0778" x2="32.9833" y2="30.9222" gradientUnits="userSpaceOnUse">
<stop stop-color="#D2A374" stop-opacity="0"/>
<stop offset="1" stop-color="#B88653"/>
</linearGradient>
<linearGradient id="paint18_linear_443_420" x1="19.4955" y1="25.6671" x2="21.778" y2="18.9385" gradientUnits="userSpaceOnUse">
<stop stop-color="#D2A374" stop-opacity="0"/>
<stop offset="1" stop-color="#B88653"/>
</linearGradient>
<linearGradient id="paint19_linear_443_420" x1="20.3513" y1="19.9516" x2="29.992" y2="29.237" gradientUnits="userSpaceOnUse">
<stop offset="0.3118" stop-color="#F0C492" stop-opacity="0"/>
<stop offset="1" stop-color="#E6AF74"/>
</linearGradient>
<linearGradient id="paint20_linear_443_420" x1="16.9074" y1="26.0634" x2="19.9083" y2="16.9074" gradientUnits="userSpaceOnUse">
<stop stop-color="#D2A374" stop-opacity="0"/>
<stop offset="1" stop-color="#B88653"/>
</linearGradient>
<radialGradient id="paint21_radial_443_420" cx="0" cy="0" r="1" gradientUnits="userSpaceOnUse" gradientTransform="translate(17.0748 26.7942) rotate(-138.963) scale(4.33457 1.9778)">
<stop stop-color="#E9CDB1"/>
<stop offset="1" stop-color="#E9CDB1" stop-opacity="0"/>
</radialGradient>
<radialGradient id="paint22_radial_443_420" cx="0" cy="0" r="1" gradientUnits="userSpaceOnUse" gradientTransform="translate(23.7277 22.1238) rotate(38.2192) scale(3.3423 1.23066)">
<stop stop-color="#E9CDB1"/>
<stop offset="1" stop-color="#E9CDB1" stop-opacity="0"/>
</radialGradient>
<radialGradient id="paint23_radial_443_420" cx="0" cy="0" r="1" gradientUnits="userSpaceOnUse" gradientTransform="translate(18.6587 9.74484) rotate(165.356) scale(0.824395 0.48402)">
<stop stop-color="#E9CDB1"/>
<stop offset="1" stop-color="#E9CDB1" stop-opacity="0"/>
</radialGradient>
<radialGradient id="paint24_radial_443_420" cx="0" cy="0" r="1" gradientUnits="userSpaceOnUse" gradientTransform="translate(25.9453 9.57505) rotate(-143.693) scale(0.915984 0.486877)">
<stop stop-color="#E9CDB1"/>
<stop offset="1" stop-color="#E9CDB1" stop-opacity="0"/>
</radialGradient>
<linearGradient id="paint25_linear_443_420" x1="20.1434" y1="20.5917" x2="20.1434" y2="52.8247" gradientUnits="userSpaceOnUse">
<stop stop-color="#D2A374" stop-opacity="0"/>
<stop offset="1" stop-color="#B88653"/>
</linearGradient>
</defs>
</svg>
