<svg width="20" height="20" viewBox="0 0 20 20" fill="none" xmlns="http://www.w3.org/2000/svg">
<path fill-rule="evenodd" clip-rule="evenodd" d="M3.5415 10C3.5415 9.65482 3.82133 9.375 4.1665 9.375H15.8332C16.1783 9.375 16.4582 9.65482 16.4582 10C16.4582 10.3452 16.1783 10.625 15.8332 10.625H4.1665C3.82133 10.625 3.5415 10.3452 3.5415 10Z" fill="#1A1A25"/>
<path fill-rule="evenodd" clip-rule="evenodd" d="M9.55806 3.72475C9.80214 3.48067 10.1979 3.48067 10.4419 3.72475L16.2753 9.55808C16.5194 9.80216 16.5194 10.1979 16.2753 10.442L10.4419 16.2753C10.1979 16.5194 9.80214 16.5194 9.55806 16.2753C9.31398 16.0312 9.31398 15.6355 9.55806 15.3914L14.9495 10L9.55806 4.60863C9.31398 4.36455 9.31398 3.96882 9.55806 3.72475Z" fill="#1A1A25"/>
</svg>
