<svg width="20" height="20" viewBox="0 0 20 20" fill="none" xmlns="http://www.w3.org/2000/svg">
<path d="M10 18.75C14.8325 18.75 18.75 14.8325 18.75 10C18.75 5.16751 14.8325 1.25 10 1.25C5.16751 1.25 1.25 5.16751 1.25 10C1.25 14.8325 5.16751 18.75 10 18.75Z" fill="#080C21"/>
<path d="M9.1665 9.16666H10.8332V13.75H9.1665V9.16666Z" fill="#F7F7F7"/>
<path d="M10.0002 7.91668C10.5755 7.91668 11.0418 7.45031 11.0418 6.87501C11.0418 6.29971 10.5755 5.83334 10.0002 5.83334C9.42487 5.83334 8.9585 6.29971 8.9585 6.87501C8.9585 7.45031 9.42487 7.91668 10.0002 7.91668Z" fill="#F7F7F7"/>
</svg>
