<svg width="16" height="18" viewBox="0 0 16 18" fill="none" xmlns="http://www.w3.org/2000/svg">
<path d="M7.63953 18C8.74722 18 9.65352 17.1692 9.65352 16.1538H5.62554C5.62554 16.6435 5.83773 17.1131 6.21543 17.4593C6.59312 17.8055 7.10539 18 7.63953 18ZM13.6815 12.4615V7.84615C13.6815 5.01231 12.03 2.64 9.15002 2.01231V1.38462C9.15002 0.618462 8.47533 0 7.63953 0C6.80372 0 6.12904 0.618462 6.12904 1.38462V2.01231C3.23897 2.64 1.59757 5.00308 1.59757 7.84615V12.4615L0.29855 13.6523C-0.335855 14.2338 0.107222 15.2308 1.00345 15.2308H14.2655C15.1618 15.2308 15.6149 14.2338 14.9805 13.6523L13.6815 12.4615Z" fill="#080C21"/>
</svg>
