<svg width="18" height="4" viewBox="0 0 18 4" fill="none" xmlns="http://www.w3.org/2000/svg">
<path d="M15.7289 4.00001C15.4663 4.0001 15.2062 3.94845 14.9635 3.84802C14.7208 3.74759 14.5003 3.60034 14.3145 3.41468C14.1287 3.22902 13.9813 3.00859 13.8808 2.76597C13.7802 2.52335 13.7284 2.26329 13.7283 2.00065C13.7282 1.73801 13.7798 1.47792 13.8803 1.23523C13.9807 0.992547 14.1279 0.77202 14.3136 0.586243C14.4993 0.400465 14.7197 0.253076 14.9623 0.152488C15.2049 0.0519003 15.465 8.44681e-05 15.7276 1.03327e-07C16.2581 -0.000170279 16.7668 0.210381 17.142 0.585335C17.5172 0.960288 17.7281 1.46893 17.7283 1.99936C17.7285 2.5298 17.5179 3.03858 17.1429 3.41377C16.768 3.78897 16.2594 3.99984 15.7289 4.00001Z" fill="#080C21"/>
<path d="M8.86475 3.99998C9.96897 3.99998 10.8641 3.10484 10.8641 2.00062C10.8641 0.896401 9.96897 0.00125482 8.86475 0.00125482C7.76054 0.00125482 6.86539 0.896401 6.86539 2.00062C6.86539 3.10484 7.76054 3.99998 8.86475 3.99998Z" fill="#080C21"/>
<path d="M1.99936 3.99998C3.10358 3.99998 3.99873 3.10484 3.99873 2.00062C3.99873 0.896401 3.10358 0.00125482 1.99936 0.00125482C0.895146 0.00125482 0 0.896401 0 2.00062C0 3.10484 0.895146 3.99998 1.99936 3.99998Z" fill="#080C21"/>
</svg>
