<svg width="70" height="56" viewBox="0 0 70 56" fill="none" xmlns="http://www.w3.org/2000/svg">
<path d="M60.9454 9.10633C61.0615 9.10633 61.0615 9.10633 61.1776 8.99024L69.4197 4.34679C69.5358 4.2307 69.6519 4.11462 69.6519 3.99853C69.6519 3.88244 69.6519 3.76636 69.5358 3.65027L65.9371 0.0515939C65.821 0.0515939 65.7049 -0.0644924 65.4728 0.0515939C65.3567 0.0515939 65.2406 0.16768 65.1245 0.283766L60.481 8.5259C60.3649 8.75807 60.365 8.87416 60.5971 9.10633H60.9454Z" fill="#080C21"/>
<path d="M0.580198 4.46286L8.82233 9.10631C8.93841 9.10631 8.93841 9.2224 9.0545 9.2224C9.40276 9.2224 9.51885 8.99022 9.51885 8.75805C9.51885 8.64196 9.51885 8.52588 9.40276 8.40979L4.87539 0.283747C4.75931 0.0515745 4.64322 0.0515747 4.52713 0.0515747C4.41105 0.0515747 4.29496 0.0515746 4.17887 0.167661L0.580198 3.76634C0.464112 3.88242 0.464111 3.99851 0.464111 4.1146C0.464111 4.23068 0.464112 4.34677 0.580198 4.46286V4.46286Z" fill="#080C21"/>
<path d="M69.7679 14.7945C69.6518 14.6784 69.5357 14.6784 69.4196 14.6784L60.3649 17.2323C60.1327 17.2323 60.0166 17.4645 60.0166 17.6967C60.0166 17.9288 60.1327 18.0449 60.3649 18.161L69.4196 20.7149H69.5357C69.6518 20.7149 69.7679 20.7149 69.7679 20.5988C69.8839 20.4827 70 20.3666 70 20.2505V15.1428C69.8839 15.0267 69.8839 14.7945 69.7679 14.7945Z" fill="#080C21"/>
<path d="M9.75125 17.2323L0.696518 14.6784C0.580432 14.6784 0.464346 14.6784 0.348259 14.7945C0.116087 14.7945 0 15.0267 0 15.1428V20.1345C0 20.2505 0.116086 20.3666 0.232172 20.4827C0.348259 20.5988 0.464345 20.5988 0.464345 20.5988H0.580432L9.63516 18.0449C9.86734 18.0449 9.98342 17.8127 9.98342 17.5806C9.98342 17.3484 9.86734 17.2323 9.75125 17.2323V17.2323Z" fill="#080C21"/>
<path d="M29.602 20.8867C27.6866 20.8867 26.1194 22.4538 26.1194 24.3693V33.0757C26.1194 34.0378 25.3402 34.817 24.3781 34.817C23.4161 34.817 22.6368 34.0378 22.6368 33.0757V24.7447C22.6368 22.8522 23.1505 20.9933 24.1267 19.3696L32.5883 5.26617C33.5776 3.61629 33.0443 1.47776 31.3945 0.487403C29.8219 -0.456161 27.8335 0.0194304 26.7909 1.48974C26.7691 1.51477 26.7234 1.51259 26.7049 1.54198L13.9434 20.6853C12.7942 22.4092 12.1891 24.4128 12.1891 26.4784V35.2099L2.38122 38.4792C1.68772 38.7099 1.08447 39.1532 0.657051 39.746C0.229633 40.3389 -0.000253887 41.0513 2.10417e-07 41.7822V52.23C2.10417e-07 53.4075 0.92724 55.7126 3.48259 55.7126C3.77535 55.7126 4.07137 55.6756 4.35977 55.6005L23.8612 50.5268C29.2929 48.9738 33.0846 43.9469 33.0846 38.2996V24.3693C33.0846 22.4538 31.5174 20.8867 29.602 20.8867V20.8867ZM67.2706 38.4879L57.4627 35.2186V26.4871C57.4627 24.4215 56.8576 22.4179 55.7084 20.694L42.9469 1.55177C42.9273 1.52239 42.8827 1.52565 42.8609 1.49953C41.8183 0.0292252 39.8299 -0.446366 38.2573 0.497198C36.6075 1.48647 36.0742 3.62609 37.0635 5.27596L45.5251 19.3794C46.5013 21.0031 47.015 22.862 47.015 24.7545V33.0855C47.015 34.0476 46.2357 34.8268 45.2737 34.8268C44.3116 34.8268 43.5324 34.0476 43.5324 33.0855V24.3791C43.5324 22.4636 41.9652 20.8965 40.0498 20.8965C38.1344 20.8965 36.5672 22.4636 36.5672 24.3791V38.3094C36.5672 43.9567 40.3589 48.9836 45.7906 50.5355L65.292 55.6092C65.5815 55.6843 65.8775 55.7213 66.1692 55.7213C68.7246 55.7213 69.6518 53.4162 69.6518 52.2387V41.7909C69.6518 40.2923 68.693 38.9624 67.2706 38.4879V38.4879Z" fill="#080C21"/>
</svg>
