<svg width="16" height="17" viewBox="0 0 16 17" fill="none" xmlns="http://www.w3.org/2000/svg">
<path d="M2.94445 10.9164C3.67894 10.9142 4.38563 10.6354 4.92372 10.1354L10.1805 13.1392C10.0044 13.8274 10.082 14.5561 10.3992 15.1918C10.7164 15.8275 11.252 16.3276 11.9078 16.6008C12.5636 16.8739 13.2959 16.9016 13.9706 16.6789C14.6452 16.4563 15.2171 15.9981 15.5815 15.3882C15.9459 14.7784 16.0785 14.0577 15.955 13.3581C15.8314 12.6584 15.4601 12.0267 14.9088 11.5785C14.3576 11.1304 13.6634 10.8957 12.9533 10.9175C12.2432 10.9393 11.5647 11.2162 11.0421 11.6973L5.78529 8.69359C5.84071 8.48366 5.87095 8.26617 5.87598 8.04867L11.0404 5.09699C11.5377 5.54942 12.1754 5.81707 12.8466 5.85503C13.5178 5.893 14.1817 5.69897 14.7268 5.30551C15.2719 4.91204 15.6652 4.34307 15.8405 3.69405C16.0159 3.04503 15.9627 2.35545 15.6899 1.74099C15.4171 1.12654 14.9413 0.624593 14.3423 0.319367C13.7433 0.0141403 13.0575 -0.0757963 12.4 0.0646447C11.7426 0.205086 11.1534 0.56736 10.7314 1.09069C10.3094 1.61402 10.0802 2.26657 10.0822 2.93886C10.0856 3.1807 10.1184 3.42171 10.1805 3.65515L5.40741 6.38179C5.13061 5.95357 4.74717 5.60473 4.29477 5.36954C3.84236 5.13436 3.33655 5.02091 2.82704 5.04035C2.31752 5.05979 1.82182 5.21145 1.38865 5.48042C0.955483 5.7494 0.59974 6.12644 0.356376 6.5745C0.113012 7.02257 -0.00959989 7.52623 0.000586721 8.03602C0.0107733 8.5458 0.153408 9.04417 0.414477 9.48215C0.675546 9.92013 1.04607 10.2827 1.48964 10.5341C1.93321 10.7856 2.43456 10.9173 2.94445 10.9164V10.9164Z" fill="#080C21"/>
</svg>
