<svg width="25" height="25" viewBox="0 0 25 25" fill="none" xmlns="http://www.w3.org/2000/svg">
<circle cx="12.5" cy="12.5" r="11.5" stroke="url(#paint0_linear_247_1271)" stroke-width="2"/>
<circle cx="12.5" cy="12.5" r="9.5" fill="#F7F7F7"/>
<g clip-path="url(#clip0_247_1271)">
<path d="M13.9987 8.09446C13.9626 8.09446 13.9084 8.09446 13.8723 8.11252V7.15557C13.8723 6.75835 13.5473 6.43335 13.1501 6.43335C12.8432 6.43335 12.5904 6.61391 12.4821 6.86668C12.3737 6.61391 12.1209 6.43335 11.814 6.43335C11.4168 6.43335 11.0918 6.75835 11.0918 7.15557V8.11252C11.0557 8.11252 11.0015 8.09446 10.9654 8.09446C10.5682 8.09446 10.2432 8.41946 10.2432 8.81668V14.5403C10.2432 14.9375 10.5682 15.2625 10.9654 15.2625C11.164 15.2625 11.3626 15.1722 11.489 15.0458C11.5793 15.1 11.7057 15.1361 11.814 15.1361V15.1722H13.6376C13.7459 15.2264 13.8543 15.2625 13.9987 15.2625C14.3959 15.2625 14.7209 14.9375 14.7209 14.5403V8.81668C14.7209 8.41946 14.414 8.09446 13.9987 8.09446V8.09446Z" fill="#EDC0A2"/>
<path d="M18.0431 14.0348C17.9889 13.9445 17.9348 13.8723 17.8626 13.8001C17.2306 13.1681 15.9126 13.4931 14.9014 14.5042C13.8903 15.5153 13.5653 16.8514 14.1973 17.4653C14.2514 17.5195 14.2876 17.5556 14.3417 17.5917L15.7501 19.0001H18.9639L19.0001 14.9917L18.0431 14.0348Z" fill="#357BA8"/>
<path d="M17.0319 13.6736C16.9958 13.6014 16.9416 13.5292 16.8694 13.475C15.6416 12.3917 14.2513 10.8028 14.2513 10.2431V7.39031C14.2513 6.99309 13.9263 6.66809 13.5291 6.66809C13.1319 6.66809 12.8069 6.99309 12.8069 7.39031V13.2584C12.8069 15.5153 14.1249 16.8153 14.1791 16.8695C14.2874 16.9598 14.4319 17.032 14.5763 17.0681H14.7208C15.0458 17.0681 15.7138 16.9417 16.5263 16.1292C17.4652 15.2084 17.2847 14.1611 17.0319 13.6736Z" fill="#FFD3B6"/>
<path d="M10.0805 14.5042C9.06943 13.4931 7.73332 13.1681 7.11943 13.8001C7.04721 13.8723 6.99304 13.9445 6.93888 14.0348L5.98193 14.9917L5.99999 19.0001H9.21388L10.6222 17.5917C10.6764 17.5556 10.7305 17.5195 10.7667 17.4653C11.4167 16.8334 11.0917 15.5153 10.0805 14.5042Z" fill="#357BA8"/>
<path d="M11.4528 6.66809C11.0556 6.66809 10.7306 6.99309 10.7306 7.39031V10.2431C10.7306 10.8028 9.35838 12.3917 8.11255 13.475C8.04032 13.5292 7.98616 13.6014 7.95005 13.6736C7.69727 14.1611 7.51671 15.2084 8.43755 16.1473C9.25005 16.9598 9.9181 17.0861 10.2431 17.0861H10.3875C10.532 17.0681 10.6764 16.9959 10.7848 16.8875C10.8389 16.8334 12.157 15.5514 12.157 13.2764V7.39031C12.175 6.99309 11.85 6.66809 11.4528 6.66809V6.66809Z" fill="#FFD3B6"/>
<path d="M15.8402 8.49168C15.8582 8.49168 15.8582 8.49168 15.8763 8.47362L17.1582 7.7514C17.1763 7.73334 17.1944 7.71529 17.1944 7.69723C17.1944 7.67918 17.1944 7.66112 17.1763 7.64306L16.6166 7.08334C16.5985 7.08334 16.5805 7.06529 16.5444 7.08334C16.5263 7.08334 16.5082 7.1014 16.4902 7.11945L15.768 8.4014C15.7499 8.43751 15.7499 8.45557 15.786 8.49168H15.8402Z" fill="#00BEEA"/>
<path d="M7.89574 7.76949L9.17769 8.49171C9.19574 8.49171 9.19574 8.50976 9.2138 8.50976C9.26796 8.50976 9.28602 8.47365 9.28602 8.43754C9.28602 8.41949 9.28602 8.40143 9.26796 8.38337L8.5638 7.11949C8.54574 7.08337 8.52769 7.08337 8.50963 7.08337C8.49157 7.08337 8.47352 7.08337 8.45546 7.10143L7.89574 7.66115C7.87769 7.67921 7.87769 7.69726 7.87769 7.71532C7.87769 7.73337 7.87769 7.75143 7.89574 7.76949V7.76949Z" fill="#00BEEA"/>
<path d="M17.2125 9.37633C17.1944 9.35828 17.1764 9.35828 17.1583 9.35828L15.75 9.7555C15.7139 9.7555 15.6958 9.79161 15.6958 9.82772C15.6958 9.86383 15.7139 9.88189 15.75 9.89994L17.1583 10.2972H17.1764C17.1944 10.2972 17.2125 10.2972 17.2125 10.2791C17.2305 10.2611 17.2486 10.243 17.2486 10.2249V9.4305C17.2305 9.41244 17.2305 9.37633 17.2125 9.37633Z" fill="#00BEEA"/>
<path d="M9.32233 9.7555L7.914 9.35828C7.89594 9.35828 7.87789 9.35828 7.85983 9.37633C7.82372 9.37633 7.80566 9.41244 7.80566 9.4305V10.2069C7.80566 10.2249 7.82372 10.243 7.84178 10.2611C7.85983 10.2791 7.87789 10.2791 7.87789 10.2791H7.89594L9.30428 9.88189C9.34039 9.88189 9.35844 9.84578 9.35844 9.80966C9.35844 9.77355 9.34039 9.7555 9.32233 9.7555V9.7555Z" fill="#00BEEA"/>
</g>
<defs>
<linearGradient id="paint0_linear_247_1271" x1="12.5" y1="0" x2="12.5" y2="25" gradientUnits="userSpaceOnUse">
<stop offset="0.333333" stop-color="#242B4D"/>
<stop offset="1" stop-color="#F7F7F7"/>
</linearGradient>
<clipPath id="clip0_247_1271">
<rect width="13" height="13" fill="white" transform="translate(6 6)"/>
</clipPath>
</defs>
</svg>
