<svg width="60" height="80" viewBox="0 0 60 80" fill="none" xmlns="http://www.w3.org/2000/svg">
<path d="M41.9604 60.799L42.5716 73.1931L30.0349 64.4809L17.4279 73.2013L18.0396 60.799H12.7449L11.8324 79.3077H17.896L30.0279 70.916L42.1037 79.3077H48.1676L47.2551 60.799H41.9604V60.799ZM56.3434 22.9411L55.9808 14.9998L49.2854 10.7152L45 4.0192L37.0586 3.65564L30 0L22.9414 3.65646L15 4.02003L10.7146 10.7152L4.0192 14.9998L3.65663 22.9411L0 29.9998L3.65663 37.0588L4.02019 44.9998L10.7146 49.2844L14.9993 55.9806L22.9407 56.3434L30 59.9998L37.0586 56.3434L45 55.9806L49.2848 49.2844L55.9806 45.0005L56.3434 37.0594L60 30.0005L56.3434 22.9411ZM51.1137 35.6574L50.8223 42.0221L45.4556 45.4561L42.0216 50.8228L35.6567 51.1137L30 54.0442L24.3426 51.1137L17.9778 50.8228L14.5437 45.4561L9.17768 42.0221L8.887 35.6574L5.95518 29.9998L8.88634 24.3434L9.17768 17.9778L14.5437 14.5437L17.9778 9.17719L24.3426 8.88634L30 5.95568L35.6574 8.88617L42.0222 9.17702L45.4563 14.5436L50.8223 17.9778L51.113 24.3426L54.0448 29.9998L51.1137 35.6574Z" fill="#C6CADE"/>
</svg>
